<svg width="1920" height="462" viewBox="0 0 1920 462" fill="none" xmlns="http://www.w3.org/2000/svg">
<path fill-rule="evenodd" clip-rule="evenodd" d="M0 5.68401C16 13.2627 32 13.2627 48 5.68401C64 -1.89467 80 -1.89467 96 5.68401C112 13.2627 128 13.2627 144 5.68401C160 -1.89467 176 -1.89467 192 5.68401C208 13.2627 224 13.2627 240 5.68401C256 -1.89467 272 -1.89467 288 5.68401C304 13.2627 320 13.2627 336 5.68401C352 -1.89467 368 -1.89467 384 5.68401C400 13.2627 416 13.2627 432 5.68401C448 -1.89467 464 -1.89467 480 5.68401C496 13.2627 512 13.2627 528 5.68401C544 -1.89467 560 -1.89467 576 5.68401C592 13.2627 608 13.2627 624 5.68401C640 -1.89467 656 -1.89467 672 5.68401C688 13.2627 704 13.2627 720 5.68401C736 -1.89467 752 -1.89467 768 5.68401C784 13.2627 800 13.2627 816 5.68401C832 -1.89467 848 -1.89467 864 5.68401C880 13.2627 896 13.2627 912 5.68401C928 -1.89467 944 -1.89467 960 5.68401C976 13.2627 992 13.2627 1008 5.68401C1024 -1.89467 1040 -1.89467 1056 5.68401C1072 13.2627 1088 13.2627 1104 5.68401C1120 -1.89467 1136 -1.89467 1152 5.68401C1168 13.2627 1184 13.2627 1200 5.68401C1216 -1.89467 1232 -1.89467 1248 5.68401C1264 13.2627 1280 13.2627 1296 5.68401C1312 -1.89467 1328 -1.89467 1344 5.68401C1360 13.2627 1376 13.2627 1392 5.68401C1408 -1.89467 1424 -1.89467 1440 5.68401C1456 13.2627 1472 13.2627 1488 5.68401C1504 -1.89467 1520 -1.89467 1536 5.68401C1552 13.2627 1568 13.2627 1584 5.68401C1600 -1.89467 1616 -1.89467 1632 5.68401C1648 13.2627 1664 13.2627 1680 5.68401C1696 -1.89467 1712 -1.89467 1728 5.68401C1744 13.2627 1760 13.2627 1776 5.68401C1792 -1.89467 1808 -1.89467 1824 5.68401C1840 13.2627 1856 13.2627 1872 5.68401C1888 -1.89467 1904 -1.89467 1920 5.68401V167V295V456.316C1904 463.895 1888 463.895 1872 456.316C1856 448.737 1840 448.737 1824 456.316C1808 463.895 1792 463.895 1776 456.316C1760 448.737 1744 448.737 1728 456.316C1712 463.895 1696 463.895 1680 456.316C1664 448.737 1648 448.737 1632 456.316C1616 463.895 1600 463.895 1584 456.316C1568 448.737 1552 448.737 1536 456.316C1520 463.895 1504 463.895 1488 456.316C1472 448.737 1456 448.737 1440 456.316C1424 463.895 1408 463.895 1392 456.316C1376 448.737 1360 448.737 1344 456.316C1328 463.895 1312 463.895 1296 456.316C1280 448.737 1264 448.737 1248 456.316C1232 463.895 1216 463.895 1200 456.316C1184 448.737 1168 448.737 1152 456.316C1136 463.895 1120 463.895 1104 456.316C1088 448.737 1072 448.737 1056 456.316C1040 463.895 1024 463.895 1008 456.316C992 448.737 976 448.737 960 456.316C944 463.895 928 463.895 912 456.316C896 448.737 880 448.737 864 456.316C848 463.895 832 463.895 816 456.316C800 448.737 784 448.737 768 456.316C752 463.895 736 463.895 720 456.316C704 448.737 688 448.737 672 456.316C656 463.895 640 463.895 624 456.316C608 448.737 592 448.737 576 456.316C560 463.895 544 463.895 528 456.316C512 448.737 496 448.737 480 456.316C464 463.895 448 463.895 432 456.316C416 448.737 400 448.737 384 456.316C368 463.895 352 463.895 336 456.316C320 448.737 304 448.737 288 456.316C272 463.895 256 463.895 240 456.316C224 448.737 208 448.737 192 456.316C176 463.895 160 463.895 144 456.316C128 448.737 112 448.737 96 456.316C80 463.895 64 463.895 48 456.316C32 448.737 16 448.737 0 456.316V295V167V5.68401Z" fill="#F8E1D4"/>
</svg>
