<svg width="1920" height="579" viewBox="0 0 1920 579" fill="none" xmlns="http://www.w3.org/2000/svg">
<g opacity="0.2" clip-path="url(#clip0_34_3423)">
<g style="mix-blend-mode:multiply">
<path d="M53.5042 109.983C116.602 109.983 182.625 136.535 249.884 188.979C282.807 214.655 313.394 244.078 342.973 272.536C365.865 294.559 389.537 317.326 414.122 338.193C482.683 396.386 546.593 427.474 609.506 433.235C694.151 441.004 773.751 402.617 850.699 365.501C916.519 333.753 984.584 300.924 1056.98 295.62C1167.5 287.489 1270.47 343.472 1356.64 399.276C1370.63 408.341 1384.82 417.761 1398.54 426.877C1473.45 476.627 1550.9 528.068 1638.6 549.532C1738.7 574.039 1867.12 548.509 1918.9 452.324L1922.01 454.001C1869.37 551.781 1739.18 577.806 1637.75 552.981C1549.46 531.371 1471.74 479.753 1396.58 429.837C1382.86 420.728 1368.68 411.307 1354.71 402.262C1269.05 346.775 1166.76 291.142 1057.24 299.158C985.51 304.418 917.756 337.094 852.234 368.696C774.855 406.022 694.855 444.599 609.183 436.767C545.527 430.936 480.97 399.581 411.838 340.899C387.17 319.962 363.46 297.151 340.531 275.096C311.015 246.702 280.497 217.348 247.714 191.78C178.488 137.793 110.644 111.526 46.2014 113.648C-21.1536 115.89 -100.69 159.809 -115.416 236.805L-118.887 236.138C-103.812 157.345 -22.6382 112.396 46.0873 110.116C48.5553 110.033 51.0361 109.989 53.5105 109.989L53.5042 109.983Z" fill="#F8E1D4"/>
</g>
<g style="mix-blend-mode:multiply">
<path d="M1169.18 -9.15527e-05C1205.11 -9.15527e-05 1239.35 6.64435 1270.61 20.2191C1354.71 56.7317 1409.46 137.634 1451.91 211.961C1458.35 223.23 1464.7 234.607 1471.06 246.009C1507.94 312.092 1546.06 380.429 1603.8 429.665C1699.63 511.38 1844.45 527.629 1955.96 469.17L1957.6 472.301C1844.83 531.415 1698.4 514.988 1601.51 432.359C1543.28 382.709 1505 314.093 1467.97 247.731C1461.61 236.335 1455.27 224.964 1448.84 213.708C1406.67 139.889 1352.35 59.5584 1269.19 23.4523C1171.5 -18.9552 1043.94 7.20969 927.977 93.454C876.522 131.726 830.06 177.716 785.127 222.201C744.419 262.5 702.329 304.177 656.546 340.099C601.601 383.218 458.275 478.152 314.454 428.585C264.401 411.339 221.333 378.352 179.687 346.451L174.332 342.354C129.139 307.778 84.3013 275.598 32.7191 261.744C-25.6899 246.054 -84.8094 259.743 -117.884 296.637L-120.511 294.274C-86.5607 256.402 -26.0642 242.287 33.6392 258.326C85.8368 272.352 130.992 304.748 176.477 339.54L181.831 343.643C223.256 375.373 266.089 408.182 315.602 425.244C457.761 474.239 599.869 380.073 654.363 337.316C699.988 301.521 742.002 259.921 782.64 219.692C827.655 175.125 874.206 129.039 925.871 90.6209C1005.87 31.1258 1091.45 0.0062561 1169.16 -9.15527e-05H1169.18Z" fill="#FF8A00"/>
</g>
<g style="mix-blend-mode:multiply">
<path d="M913.238 60.4161C1073.35 60.4097 1211.01 177.831 1301.68 267.518C1317.61 283.278 1333.74 299.635 1349.34 315.458C1442.84 410.285 1539.53 508.338 1664.69 552.213C1809.16 602.853 1976.76 570.151 2091.67 468.897L2094 471.552C2037.55 521.296 1966.97 555.541 1889.87 570.583C1812.77 585.632 1734.5 580.429 1663.53 555.554C1537.6 511.412 1440.62 413.061 1346.83 317.948C1331.24 302.131 1315.12 285.781 1299.2 270.04C1206.04 177.888 1063.05 56.2935 897.618 64.3354C813.094 68.439 726.8 105.32 626.034 180.404C598.816 200.686 571.927 222.455 545.927 243.513C495.118 284.656 442.572 327.204 385.127 360.597C326.464 394.696 210.884 446.721 95.8992 411.981C27.3323 391.266 -30.1885 342.5 -80.9331 299.47L-177.994 217.164L-175.71 214.464L-78.6489 296.77C-28.1646 339.578 29.0581 388.096 96.9208 408.595C210.63 442.941 325.183 391.349 383.357 357.536C440.573 324.282 493.006 281.823 543.712 240.762C569.744 219.686 596.652 197.885 623.928 177.564C725.284 102.042 812.193 64.9388 897.446 60.7972C902.732 60.5432 908.004 60.4161 913.245 60.4161H913.238Z" fill="#AE97A4"/>
</g>
</g>
<defs>
<clipPath id="clip0_34_3423">
<rect width="1920" height="579" fill="white" transform="matrix(-1 0 0 -1 1920 579)"/>
</clipPath>
</defs>
</svg>
