<svg width="133" height="110" viewBox="0 0 133 110" fill="none" xmlns="http://www.w3.org/2000/svg">
<g clip-path="url(#clip0_84_418)">
<g style="mix-blend-mode:multiply">
<path d="M72.6368 109.992C103.188 109.992 127.954 105.647 127.954 100.287C127.954 94.9277 103.188 90.5828 72.6368 90.5828C42.0861 90.5828 17.3198 94.9277 17.3198 100.287C17.3198 105.647 42.0861 109.992 72.6368 109.992Z" fill="#FDF6F2"/>
</g>
<path d="M89.0879 79.3051C91.4749 82.6939 90.7549 93.4787 90.481 93.87C90.1992 94.2613 88.5322 96.7032 91.3732 97.3762C94.2142 98.0493 105.602 98.5971 109.828 95.9831C108.662 91.7021 104.936 87.7576 94.1516 91.5925C95.3725 88.0315 94.9264 81.1991 94.3159 78.1937C93.7055 75.1884 89.0879 79.3051 89.0879 79.3051Z" fill="#F7D9C5"/>
<g style="mix-blend-mode:multiply">
<path d="M109.82 95.983C108.654 91.702 104.928 87.7575 94.1437 91.5924C95.3646 88.0314 94.9185 81.199 94.308 78.1936C94.2611 77.9588 94.1828 77.7867 94.0889 77.6301L93.0949 79.3363C93.4706 80.0015 94.762 88.1332 93.0949 92.3829C91.4279 96.6326 94.9263 91.7176 97.7203 91.1698C100.514 90.6298 105.641 90.9193 108.059 94.8795C106.674 97.157 91.0601 98.3388 89.8 95.216C89.5887 96.0378 89.7452 96.9926 91.3497 97.3683C94.1828 98.0335 105.578 98.5892 109.804 95.9752L109.82 95.983Z" fill="#E6E6E6"/>
</g>
<path d="M51.1142 80.6354C48.7272 84.0242 49.4472 94.809 49.7211 95.2003C50.0029 95.5916 51.6699 98.0335 48.8289 98.7066C45.9879 99.3796 34.6005 99.9275 30.3743 97.3135C31.5404 93.0324 35.2658 89.0879 46.0505 92.9229C44.8296 89.3618 45.2757 82.5294 45.8862 79.5241C46.4966 76.5187 51.1142 80.6354 51.1142 80.6354Z" fill="#F7D9C5"/>
<g style="mix-blend-mode:multiply">
<path d="M30.3821 97.3136C31.5482 93.0326 35.2736 89.0881 46.0584 92.923C44.8374 89.362 45.2835 82.5295 45.894 79.5242C45.941 79.2894 46.0192 79.1172 46.1131 78.9607L47.1071 80.6668C46.7314 81.3321 45.4401 89.4637 47.1071 93.7134C48.7741 97.9632 45.2757 93.0482 42.4817 92.5004C39.6877 91.9603 34.5614 92.2499 32.143 96.2101C33.5283 98.4876 49.142 99.6693 50.402 96.5466C50.6133 97.3684 50.4568 98.3232 48.8524 98.6989C46.0192 99.3641 34.624 99.9198 30.3977 97.3058L30.3821 97.3136Z" fill="#E6E6E6"/>
</g>
<path d="M75.963 10.9805C77.5205 5.75244 88.6418 -3.13834 97.7517 7.97514C102.088 4.6411 114.539 5.75244 112.763 18.2042C115.541 16.5372 118.546 18.6503 118.1 21.6479C125.215 23.6514 126.772 25.8741 124.768 31.877C129.996 33.544 132.329 40.5486 128.439 46.661C134.583 50.9655 133.55 63.6756 123.994 64.4504C124.33 71.2359 116.989 71.1498 115.878 68.8958C115.823 80.4867 101.477 83.9068 95.4194 78.3501C92.6411 81.9111 80.6354 81.238 78.5222 69.8976C76.4091 58.5571 68.4027 16.0833 68.4027 16.0833L75.963 10.9727V10.9805Z" fill="#F8E1D4"/>
<path d="M59.0658 3.85853C65.6243 -2.25388 75.2978 -0.367722 75.2978 8.4135C78.5222 8.19436 79.1875 15.4181 76.6282 16.1929C83.0772 15.9738 81.7389 24.0898 80.9641 25.3107C83.7424 25.4203 83.6329 29.8657 81.0736 31.7596C78.5144 33.6536 81.6293 38.3182 86.0747 36.0955C87.8513 37.2068 88.7435 42.3253 83.852 44.2114C84.7442 51.3256 81.8484 69.5611 80.4084 72.5665C78.9683 75.5718 73.4038 79.6807 66.2896 76.237C57.7275 88.4697 44.0548 78.4597 44.0548 78.4597C26.8211 88.2427 19.4799 74.8987 18.8146 72.0108C8.13944 73.5682 7.13766 64.6696 7.69334 61.6721C-8.53861 53.0005 4.8054 37.6529 12.2483 38.9912C3.90536 26.0933 20.1451 20.5366 23.3696 22.8688C19.8086 14.4163 30.1551 10.6362 32.8239 14.5337C31.1569 5.63513 43.6087 4.19507 44.8296 6.41776C44.1643 -0.586861 57.391 -2.48085 59.058 3.85853H59.0658Z" fill="white"/>
<g style="mix-blend-mode:multiply">
<path d="M122.006 46.0975C125.496 40.6112 123.399 34.3344 118.719 32.8396C120.511 27.455 119.118 25.4593 112.739 23.667C113.138 20.9747 110.446 19.0808 107.957 20.5756C109.554 9.40734 98.3856 8.41338 94.4959 11.4031C87.2721 2.59055 78.6552 7.7951 75.783 12.3579C75.3995 11.9822 74.9221 11.7631 74.3586 11.8022C74.3586 3.92886 65.6869 2.23053 59.8015 7.71684C58.3066 2.03487 46.4418 3.72537 47.0444 10.01C45.9487 8.01424 34.7805 9.31342 36.2753 17.2885C33.8804 13.7979 24.614 17.1868 27.7993 24.7627C24.9114 22.6653 10.3543 27.6507 17.8285 39.2181C11.1526 38.0206 -0.813997 51.7794 13.7431 59.5589C13.2422 62.2512 14.1422 70.2262 23.7139 68.8332C24.3087 71.4237 30.8907 83.3903 46.3479 74.6169C46.3479 74.6169 58.6118 83.5859 66.2895 72.6211C71.9245 75.3525 76.4638 72.7933 78.3422 70.3045C81.6997 77.1996 90.2227 77.3091 92.4062 74.5151C97.8377 79.5005 110.697 76.4326 110.751 66.0391C111.745 68.0583 118.327 68.1366 118.03 62.0477C126.6 61.3511 127.523 49.9637 122.021 46.0975H122.006Z" fill="#F8E1D4"/>
</g>
<path d="M49.502 22.5558C48.2341 22.321 47.4906 20.9592 48.0306 19.7853C48.962 17.7504 50.5507 16.0756 52.6169 15.0346C54.4639 14.0955 56.5536 13.7433 58.4789 13.9859C59.8563 14.1581 60.6781 15.5981 60.0755 16.8504C59.7076 17.6252 58.8937 18.0791 58.0484 17.9617C56.8901 17.7974 55.5831 18.0165 54.4248 18.6035C53.65 18.9948 52.4134 19.8322 51.6856 21.4053C51.3021 22.2428 50.4099 22.7202 49.502 22.5558Z" fill="#590068"/>
<path d="M100.507 19.8871C101.774 19.6523 102.518 18.2905 101.978 17.1166C101.047 15.0817 99.4579 13.4069 97.3917 12.3659C95.5447 11.4268 93.455 11.0746 91.5297 11.3172C90.1523 11.4894 89.3305 12.9294 89.9331 14.1817C90.301 14.9565 91.1149 15.4104 91.9602 15.293C93.1185 15.1287 94.4255 15.3478 95.5838 15.9348C96.3586 16.3261 97.5952 17.1635 98.323 18.7366C98.7065 19.5741 99.5987 20.0515 100.507 19.8871Z" fill="#590068"/>
<g style="mix-blend-mode:multiply" opacity="0.2">
<path d="M18.2981 42.5365C16.6546 42.5365 15.2302 41.7538 14.2832 40.2903L14.7293 40.0007C15.7702 41.613 17.4529 42.2939 19.3625 41.8869C21.8122 41.3625 23.7844 39.2572 24.1601 36.7606C24.9115 31.8456 27.0089 30.9299 30.3821 31.0317C33.4657 31.1178 34.5849 30.883 36.0249 27.7681L36.5102 27.995C34.9527 31.3682 33.5831 31.65 30.3664 31.5717C27.1498 31.4778 25.3889 32.2761 24.6923 36.8467C24.2775 39.5546 22.1331 41.8399 19.4721 42.4113C19.0651 42.4973 18.6738 42.5365 18.2903 42.5365H18.2981Z" fill="#590068"/>
</g>
<g style="mix-blend-mode:multiply" opacity="0.2">
<path d="M11.3561 60.1067C10.777 58.9954 10.5657 57.1562 11.3953 55.5361C11.9353 54.4796 13.1014 53.1491 15.645 52.7656C17.0224 52.5543 18.2199 52.4995 19.2843 52.4447C22 52.3116 23.1035 52.1864 23.2601 50.5037C23.3853 49.1341 22.6731 47.8271 21.9844 46.5592C21.3348 45.3618 20.7165 44.227 20.9356 43.1704L21.46 43.28C21.28 44.1409 21.8513 45.1896 22.454 46.301C23.1505 47.5688 23.9331 49.0089 23.8001 50.5429C23.6044 52.7499 21.8983 52.836 19.3234 52.9691C18.2747 53.0238 17.0851 53.0786 15.7389 53.2821C13.4223 53.6343 12.3657 54.8317 11.8883 55.7709C11.1526 57.2266 11.3326 58.8702 11.8492 59.8563L11.3796 60.0989L11.3561 60.1067Z" fill="#590068"/>
</g>
<g style="mix-blend-mode:multiply" opacity="0.2">
<path d="M23.9566 61.6408C22.1487 61.6408 20.9982 60.8034 20.3408 60.099C18.4859 58.0955 18.3685 54.8475 19.5034 53.2744L19.9338 53.5875C18.9399 54.9571 19.0729 57.9389 20.7321 59.7312C21.7574 60.8347 24.1601 62.2748 28.7542 59.4573L29.0359 59.9112C26.9541 61.1869 25.2871 61.633 23.9644 61.633L23.9566 61.6408Z" fill="#590068"/>
</g>
<g style="mix-blend-mode:multiply" opacity="0.2">
<path d="M64.92 20.56C63.8087 20.56 62.666 20.2782 61.7112 19.7147L61.9851 19.253C63.7852 20.3095 66.2974 20.2861 67.714 19.1904C68.7002 18.4234 69.0132 17.2729 68.6062 15.8485C67.4636 11.8179 67.8079 8.71865 73.2003 6.71509L73.3882 7.21598C68.3558 9.07866 68.0271 11.8492 69.1228 15.6998C69.5845 17.3277 69.201 18.713 68.0427 19.6052C67.2288 20.2313 66.1018 20.5443 64.9278 20.5443L64.92 20.56Z" fill="#590068"/>
</g>
<g style="mix-blend-mode:multiply" opacity="0.2">
<path d="M62.7599 75.7676C61.492 76.1824 60.2398 75.9397 59.3163 75.1023C58.0093 73.9205 57.5866 71.7839 58.1579 69.2404C58.6588 66.9942 58.2206 65.0376 56.8822 63.5897C56.4831 63.1592 56.0057 62.7992 55.4735 62.4783C56.9292 62.1731 58.111 61.14 58.831 59.4965C59.8719 57.1329 59.6841 54.1354 58.4006 52.6719L58.0014 53.0241C59.1441 54.3232 59.2928 57.1251 58.3458 59.2852C57.8997 60.2948 56.8196 62.0009 54.6204 62.0479C52.8203 61.2653 50.4803 61.0148 47.8506 61.3748L47.921 61.907C51.6855 61.3827 54.8083 62.1262 56.4831 63.9497C57.6962 65.2645 58.0953 67.0568 57.6336 69.123C57.0231 71.8544 57.5005 74.1788 58.9562 75.4936C59.6841 76.1589 60.592 76.4954 61.5546 76.4954C62.0007 76.4954 62.4625 76.425 62.9321 76.2685L62.7677 75.7597L62.7599 75.7676Z" fill="#590068"/>
</g>
<g style="mix-blend-mode:multiply" opacity="0.2">
<path d="M74.8517 63.2923C77.4657 65.2958 82.4981 66.0159 86.5443 63.1279C81.5276 68.6534 76.8787 65.9376 74.8517 63.2923Z" fill="#590068"/>
</g>
<g style="mix-blend-mode:multiply" opacity="0.2">
<path d="M99.184 65.8435C97.8143 65.8435 96.4447 65.2408 95.3412 64.0825L95.7247 63.7147C97.5013 65.5695 99.5988 65.5461 100.976 64.9043C102.698 64.0982 103.668 62.3372 103.442 60.4276L103.974 60.365C104.224 62.5094 103.136 64.4739 101.203 65.3817C100.554 65.6869 99.8648 65.8356 99.184 65.8356V65.8435Z" fill="#590068"/>
</g>
<g style="mix-blend-mode:multiply" opacity="0.2">
<path d="M99.7317 75.6108C98.4169 75.6108 96.8125 75.3291 94.8872 74.6012L95.075 74.1003C101.485 76.503 103.958 73.9908 104.858 72.2768C106.243 69.655 105.602 65.6635 103.551 64.2234L103.856 63.7852C106.134 65.3896 106.854 69.6393 105.328 72.5194C104.748 73.6073 103.222 75.603 99.7317 75.603V75.6108Z" fill="#590068"/>
</g>
<g style="mix-blend-mode:multiply" opacity="0.2">
<path d="M106.439 65.9141C105.382 61.9069 107.198 59.9816 108.372 59.199C110.196 57.9781 112.865 57.8763 114.32 58.9799L113.999 59.4025C112.872 58.5494 110.462 58.4398 108.67 59.6373C107.613 60.3495 105.977 62.0869 106.956 65.7732L106.439 65.9062V65.9141Z" fill="#590068"/>
</g>
<g style="mix-blend-mode:multiply" opacity="0.2">
<path d="M110.908 37.0267L110.618 36.5806C111.158 36.2284 111.917 34.5457 111.855 32.6909C111.816 31.3682 111.346 29.5603 109.35 28.4489L108.936 28.2142L109.35 27.9794C110.892 27.1185 111.972 25.7332 112.395 24.074C112.739 22.7122 112.583 21.3191 111.972 20.3565L112.426 20.0747C113.115 21.1626 113.295 22.7122 112.911 24.2149C112.489 25.8741 111.456 27.2828 109.992 28.2298C111.886 29.4742 112.34 31.3212 112.387 32.6909C112.45 34.6553 111.651 36.5571 110.9 37.0423L110.908 37.0267Z" fill="#590068"/>
</g>
<g style="mix-blend-mode:multiply" opacity="0.2">
<path d="M118.257 39.2807C116.402 39.2807 114.696 38.4589 113.725 37.0345L114.164 36.7371C115.205 38.2633 117.2 39.0146 119.251 38.6624C120.996 38.3572 122.295 37.3476 122.647 36.0093L123.164 36.1423C122.757 37.6763 121.293 38.8424 119.345 39.179C118.977 39.2416 118.617 39.2729 118.257 39.2729V39.2807Z" fill="#590068"/>
</g>
<g style="mix-blend-mode:multiply" opacity="0.2">
<path d="M119.814 49.4941L119.423 49.1341C121.427 46.974 121.747 42.5678 119.141 40.1259L119.509 39.7346C122.327 42.3799 121.99 47.1462 119.814 49.4941Z" fill="#590068"/>
</g>
<g style="mix-blend-mode:screen">
<path d="M86.4973 38.2477C86.6539 39.0225 85.8869 39.8286 84.7912 40.0478C83.6955 40.2669 85.2608 38.8425 85.1042 38.0677C84.9477 37.2929 83.1242 37.4729 84.2277 37.2459C85.3312 37.019 86.3486 37.4651 86.5052 38.2399L86.4973 38.2477Z" fill="#7A7A7A"/>
</g>
<path d="M81.0266 61.2574C76.5656 61.2574 71.3532 59.8096 67.8548 57.3051C64.7321 55.0668 63.4094 51.224 66.2269 48.61L66.3756 48.4769C67.847 47.1073 69.9444 46.7551 71.8306 47.4282C76.3386 49.0326 84.5485 49.3378 89.6748 47.303C91.6627 46.5125 93.9245 47.0917 95.3646 48.6726L95.4585 48.7822C97.963 51.5214 96.4368 55.0668 93.4158 57.219C89.3696 60.0991 85.5738 61.2653 81.0266 61.2653V61.2574Z" fill="#590068"/>
<path d="M89.0174 47.5298C84.1573 49.2046 77.0118 48.9933 72.5898 47.6707C73.2551 51.1299 74.9691 52.8674 80.698 52.977C86.4034 53.0865 88.8453 50.6212 89.0174 47.5298Z" fill="white"/>
<path d="M73.1924 59.9267C75.7516 60.7798 78.5065 61.2572 81.0266 61.2572C84.2746 61.2572 87.139 60.6468 89.9878 59.2537C88.36 57.2266 85.4251 57.0701 81.3866 57.1014C77.2308 57.1327 73.8811 57.4692 73.1846 59.9267H73.1924Z" fill="white"/>
<path d="M56.9058 29.3023C55.364 26.8604 50.4803 24.4186 46.2462 28.0579C42.0121 31.6971 47.6393 42.8967 58.3458 45.0881C65.914 43.3428 71.5177 29.3805 66.4618 26.203C61.8912 23.3307 57.6962 27.557 56.8979 29.2944L56.9058 29.3023Z" fill="#EB156F"/>
<g style="mix-blend-mode:screen">
<path d="M65.3113 29.3493C65.3113 30.3198 64.5286 31.1024 63.5582 31.1024C62.5877 31.1024 61.8051 30.3198 61.8051 29.3493C61.8051 28.3788 62.5877 27.5962 63.5582 27.5962C64.5286 27.5962 65.3113 28.3788 65.3113 29.3493Z" fill="#7A7A7A"/>
</g>
<path d="M97.0082 26.6568C95.4664 24.2149 90.5827 21.7731 86.3486 25.4124C82.1146 29.0516 87.7417 40.2512 98.4482 42.4426C106.016 40.6973 111.62 26.735 106.564 23.5575C101.994 20.6852 97.7987 24.9115 97.0004 26.6489L97.0082 26.6568Z" fill="#EB156F"/>
<g style="mix-blend-mode:screen">
<path d="M105.406 26.7038C105.406 27.6743 104.623 28.4569 103.653 28.4569C102.682 28.4569 101.9 27.6743 101.9 26.7038C101.9 25.7333 102.682 24.9507 103.653 24.9507C104.623 24.9507 105.406 25.7333 105.406 26.7038Z" fill="#7A7A7A"/>
</g>
<path d="M123.086 57.1016C116.606 66.0784 102.432 69.4047 97.4309 68.9116C96.6091 62.447 94.3864 59.3321 93.1263 61.2104C91.8663 63.0888 91.6784 65.4758 91.6784 65.4758C85.5504 62.58 84.079 62.447 83.9773 64.2079C83.8677 65.9689 84.2825 67.088 85.8243 67.9411C82.9833 67.2211 81.7781 69.5925 82.9364 70.9699C81.7546 73.6074 85.6443 75.971 89.8079 75.384C93.9716 74.8049 97.0004 73.177 97.0004 73.177C102.549 76.0884 114.485 71.236 119.501 66.3445C124.518 61.453 123.086 57.1016 123.086 57.1016Z" fill="#F7D9C5"/>
<g style="mix-blend-mode:multiply">
<path d="M89.8079 75.3841C93.9716 74.8049 97.0004 73.177 97.0004 73.177C102.549 76.0884 114.438 71.3065 119.454 66.415C120.527 65.3663 121.567 64.1141 121.755 63.4019C118.523 66.7359 106.228 73.1301 102.08 73.0127C97.6969 72.8874 96.2491 72.2379 96.2725 72.457C91.9289 74.9927 84.6895 75.1258 83.8912 72.3709C85.2843 72.4413 87.0217 73.0596 88.6183 72.3083C85.2843 72.4413 81.0111 69.9056 85.8321 67.9412C82.9911 67.2211 81.7859 69.5925 82.9442 70.97C81.7624 73.6075 85.6521 75.971 89.8158 75.3841H89.8079Z" fill="#E6E6E6"/>
</g>
<g style="mix-blend-mode:multiply">
<path d="M84.4938 63.1749C84.4938 63.1749 91.1462 65.6089 92.5628 66.1176C92.2497 65.2254 92.688 61.1635 93.9794 60.6704C93.6663 60.6548 93.3768 60.8269 93.1185 61.2026C91.8584 63.0809 91.6706 65.468 91.6706 65.468C87.3191 63.4097 85.3156 62.7522 84.486 63.1749H84.4938Z" fill="#E6E6E6"/>
</g>
<path d="M30.5621 57.1016C37.0424 66.0784 51.216 69.4047 56.2171 68.9116C57.0388 62.447 59.2615 59.3321 60.5216 61.2104C61.7816 63.0888 61.9694 65.4758 61.9694 65.4758C68.0975 62.58 69.5689 62.447 69.6706 64.2079C69.7802 65.9689 69.3654 67.088 67.8236 67.9411C70.6646 67.2211 71.8698 69.5925 70.7115 70.9699C71.8933 73.6074 68.0036 75.971 63.84 75.384C59.6763 74.8049 56.6475 73.177 56.6475 73.177C51.0986 76.0884 39.1633 71.236 34.1466 66.3445C29.1299 61.453 30.5621 57.1016 30.5621 57.1016Z" fill="#F7D9C5"/>
<g style="mix-blend-mode:multiply" opacity="0.2">
<path d="M63.8399 75.3841C59.6763 74.8049 56.6475 73.177 56.6475 73.177C51.0986 76.0884 39.2103 71.3065 34.1935 66.415C33.1213 65.3663 32.0804 64.1141 31.8926 63.4019C35.1249 66.7359 47.4201 73.1301 51.5681 73.0127C55.9509 72.8874 57.3988 72.2379 57.3753 72.457C61.719 74.9927 68.9584 75.1258 69.7567 72.3709C68.3636 72.4413 66.6261 73.0596 65.0295 72.3083C68.3636 72.4413 72.6368 69.9056 67.8157 67.9412C70.6567 67.2211 71.862 69.5925 70.7037 70.97C71.8855 73.6075 67.9957 75.971 63.8321 75.3841H63.8399Z" fill="#590068"/>
</g>
<g style="mix-blend-mode:multiply" opacity="0.2">
<path d="M69.1541 63.1749C69.1541 63.1749 62.5016 65.6089 61.085 66.1176C61.3981 65.2254 60.9598 61.1635 59.6685 60.6704C59.9815 60.6548 60.2711 60.8269 60.5294 61.2026C61.7894 63.0809 61.9772 65.468 61.9772 65.468C66.3366 63.4097 68.3323 62.7522 69.1619 63.1749H69.1541Z" fill="#590068"/>
</g>
<path d="M113.138 46.6455L104.741 48.0073C102.252 48.4143 99.9118 46.7238 99.5126 44.2428C99.1057 41.754 100.796 39.4139 103.277 39.0148L111.675 37.653C114.164 37.246 116.504 38.9365 116.903 41.4175C117.31 43.9063 115.619 46.2464 113.138 46.6455Z" fill="#FFA7A3"/>
<path d="M51.9911 51.122L43.6025 51.5132C41.0617 51.6316 38.9015 49.664 38.783 47.1232L38.7779 47.0137C38.6594 44.4729 40.6271 42.3127 43.1679 42.1942L51.5565 41.803C54.0973 41.6845 56.2575 43.6522 56.376 46.193L56.3811 46.3025C56.4996 48.8433 54.5319 51.0035 51.9911 51.122Z" fill="#FFA7A3"/>
</g>
<defs>
<clipPath id="clip0_84_418">
<rect width="132.29" height="110" fill="white"/>
</clipPath>
</defs>
</svg>
