<svg width="143" height="138" viewBox="0 0 143 138" fill="none" xmlns="http://www.w3.org/2000/svg">
<path d="M36.7338 103.065C52.0132 121.182 79.0862 123.482 97.2031 108.203C106.29 100.539 112.943 88.6082 115.374 76.2919C117.806 63.972 115.978 51.5028 108.452 42.5797C100.919 33.6477 86.6584 28.4329 71.7494 27.4772C56.8475 26.5219 41.8211 29.8567 32.8565 37.4173C23.9879 44.8968 21.0084 56.5778 22.2692 68.8973C23.5297 81.2147 29.0199 93.9185 36.7338 103.065Z" stroke="#F6E3EE" stroke-width="3"/>
<path d="M127.008 87.3731C121.169 79.4893 110.043 77.8321 102.16 83.6717C98.1875 86.6138 95.0817 91.4239 93.7361 96.5231C92.3895 101.626 92.8573 106.785 95.6717 110.584C98.493 114.393 104.256 116.982 110.572 117.789C116.882 118.596 123.224 117.557 127.068 114.71C130.81 111.938 132.371 107.284 132.169 102.087C131.967 96.8928 129.996 91.4076 127.008 87.3731Z" stroke="#F8E1D4" stroke-width="3"/>
</svg>
