<svg width="190" height="122" viewBox="0 0 190 122" fill="none" xmlns="http://www.w3.org/2000/svg">
<g clip-path="url(#clip0_84_340)">
<path d="M124.754 73.0738C124.647 80.4289 119.296 85.3752 117.8 86.2614C116.305 87.1477 105.055 86.2614 105.055 86.2614C105.055 86.2614 99.3156 87.1553 99.1031 87.2613C98.8905 87.3673 96.226 84.5192 96.226 84.5192C93.7285 82.4741 77.5593 82.1635 75.5628 83.686C73.5587 85.2085 79.5102 88.7838 79.5102 88.7838C79.5102 88.7838 89.151 90.7305 90.358 90.5715C91.5726 90.4124 96.1577 91.0638 96.1577 91.0638C97.5165 94.0937 111.052 96.6161 120.214 92.5712C129.377 88.5263 132.482 77.4899 132.277 72.233C132.064 66.9761 129.749 65.5066 129.749 65.5066C129.749 65.5066 125.012 67.3473 124.906 68.1881C124.799 69.0289 124.746 73.0738 124.746 73.0738H124.754Z" fill="#F7D9C5"/>
<path d="M68.1917 77.6489C66.2939 86.8977 69.1938 94.3588 78.3032 95.9874C87.4126 97.616 99.2625 88.3672 102.846 88.3142C104.493 88.2914 106.034 88.5793 107.218 88.8974C109.465 89.5034 111.864 89.3443 113.967 88.3596C116.024 87.3976 117.8 86.2614 117.8 86.2614C111.112 83.2694 105.108 80.8454 98.7918 83.4209C92.4684 85.9963 86.365 89.814 80.5198 86.9053C74.6746 83.9966 77.5744 75.8007 77.5744 75.8007L68.1993 77.6413L68.1917 77.6489Z" fill="#F1C6B0"/>
<path d="M33.8263 45.3199C23.2214 50.9934 16.8297 45.3199 17.2548 39.7145C23.5023 40.3963 25.2255 31.5717 18.1657 29.6249C11.1059 27.6782 8.65394 33.2002 9.73948 36.4877C8.33511 34.4879 3.80317 35.0182 2.2242 35.859C0.645232 36.6998 -1.32089 38.798 1.20698 42.7975C1.20698 42.7975 1.13866 42.449 2.96055 40.5023C4.78243 38.5556 9.3827 39.5024 9.8078 39.9948C0.926106 40.7295 2.15588 45.3199 3.02887 46.403C3.90945 47.4862 6.71819 47.9786 8.68431 44.8275C10.6504 41.6764 12.8974 42.9338 14.0209 43.5474C16.4046 48.0165 24.2007 55.5458 36.84 51.9023C36.84 51.9023 41.6832 46.9257 33.8188 45.3123L33.8263 45.3199ZM15.2962 37.0634C14.15 37.0634 13.2162 36.1317 13.2162 34.9879C13.2162 33.8441 14.15 32.9124 15.2962 32.9124C16.4425 32.9124 17.3762 33.8441 17.3762 34.9879C17.3762 36.1317 16.4425 37.0634 15.2962 37.0634Z" fill="#F7D9C5"/>
<path d="M153.152 51.9098C165.792 55.5533 173.588 48.0164 175.971 43.5548C177.095 42.9413 179.342 41.6839 181.308 44.835C183.274 47.9861 186.083 47.5013 186.964 46.4105C187.844 45.3273 189.066 40.737 180.185 40.0023C180.602 39.5099 185.202 38.5631 187.032 40.5098C188.861 42.4565 188.785 42.8049 188.785 42.8049C191.313 38.813 189.347 36.7073 187.768 35.8665C186.189 35.0257 181.657 34.503 180.253 36.4952C181.338 33.2001 178.887 27.6857 171.827 29.6324C164.767 31.5791 166.49 40.4037 172.738 39.722C173.155 45.3273 166.771 51.0008 156.166 45.3273C148.302 46.9408 153.145 51.9174 153.145 51.9174L153.152 51.9098ZM172.616 34.9878C172.616 33.844 173.55 32.9123 174.696 32.9123C175.842 32.9123 176.776 33.844 176.776 34.9878C176.776 36.1316 175.842 37.0633 174.696 37.0633C173.55 37.0633 172.616 36.1316 172.616 34.9878Z" fill="#F7D9C5"/>
<g style="mix-blend-mode:multiply" opacity="0.3">
<path d="M97.7821 121.173C127.415 121.173 151.437 116.968 151.437 111.781C151.437 106.593 127.415 102.388 97.7821 102.388C68.1495 102.388 44.1276 106.593 44.1276 111.781C44.1276 116.968 68.1495 121.173 97.7821 121.173Z" fill="#F8E1D4"/>
</g>
<path d="M107.301 10.6274C108.812 5.5675 119.599 -3.03743 128.435 7.71873C132.641 4.49189 144.718 5.5675 142.995 17.6189C145.69 16.0055 148.605 18.0507 148.172 20.9518C155.073 22.891 156.584 25.0422 154.64 30.8521C159.711 32.4655 161.973 39.2449 158.2 45.1608C164.16 49.3345 163.165 61.6283 153.889 62.3782C154.215 68.9455 147.095 68.8622 146.017 66.6807C145.963 77.8989 132.049 81.2091 126.173 75.831C123.478 79.2775 111.833 78.6261 109.784 67.6503C107.734 56.6744 99.9684 15.5662 99.9684 15.5662L107.301 10.6199V10.6274Z" fill="#F8E1D4"/>
<path d="M90.9121 3.73436C97.2735 -2.18153 106.656 -0.356009 106.656 8.14287C109.784 7.93078 110.429 14.9223 107.947 15.6722C114.202 15.4601 112.904 23.3151 112.152 24.4968C114.847 24.6028 114.741 28.9053 112.259 30.7384C109.776 32.5715 112.798 37.086 117.109 34.9348C118.833 36.0104 119.698 40.9643 114.953 42.7898C115.819 49.6753 113.01 67.3245 111.613 70.2332C110.209 73.1419 104.819 77.1187 97.9188 73.7858C89.614 85.6251 76.3522 75.937 76.3522 75.937C59.6364 85.4054 52.5159 72.4905 51.8706 69.6954C41.5162 71.2028 40.5445 62.5903 41.0835 59.6891C25.3394 51.2963 38.2824 36.4422 45.5016 37.7375C37.417 25.2543 53.1611 19.8762 56.2887 22.1335C52.8347 13.9527 62.8702 10.2941 65.4588 14.0663C63.8419 5.45383 75.9195 4.06008 77.1037 6.21131C76.4585 -0.568102 89.2876 -2.40119 90.9045 3.73436H90.9121Z" fill="white"/>
<g style="mix-blend-mode:multiply">
<path d="M151.961 44.6154C155.346 39.3055 153.312 33.2305 148.772 31.7837C150.511 26.5723 149.159 24.6407 142.973 22.9061C143.36 20.3004 140.748 18.4673 138.334 19.9141C139.883 9.1049 129.05 8.14291 125.278 11.0365C118.271 2.50728 109.913 7.5445 107.127 11.9606C106.755 11.597 106.292 11.3849 105.745 11.4228C105.745 3.80257 97.3343 2.15884 91.6258 7.46875C90.1758 1.96948 78.6676 3.60562 79.2521 9.68816C78.1893 7.75659 67.3567 9.01401 68.8066 16.7327C66.4837 13.3543 57.4957 16.6342 60.5854 23.9666C57.7842 21.9441 43.6646 26.7617 50.9142 37.9572C44.4389 36.7982 32.8319 50.1147 46.9516 57.644C46.4657 60.2497 47.3387 67.9684 56.6228 66.6201C57.1997 69.1273 63.5839 80.7091 78.5765 72.2178C78.5765 72.2178 90.4719 80.8985 97.9189 70.2863C103.385 72.9299 107.787 70.4529 109.609 68.0441C112.866 74.7175 121.133 74.8235 123.251 72.1194C128.519 76.9445 140.991 73.9752 141.044 63.9159C142.009 65.8702 148.393 65.9459 148.104 60.0528C156.417 59.3786 157.312 48.3573 151.976 44.6154H151.961Z" fill="#F8E1D4"/>
</g>
<path d="M77.1873 26.0269C75.9575 25.7997 75.2364 24.4817 75.7602 23.3454C76.6635 21.376 78.2045 19.755 80.2086 18.7476C82.0001 17.8386 84.027 17.4977 85.8944 17.7325C87.2304 17.8992 88.0275 19.2929 87.443 20.5049C87.0862 21.2548 86.2967 21.6941 85.4769 21.5805C84.3534 21.4215 83.0857 21.6335 81.9622 22.2017C81.2106 22.5804 80.0112 23.3909 79.3052 24.9134C78.9333 25.7239 78.0679 26.186 77.1873 26.0269Z" fill="#590068"/>
<path d="M136.505 23.4439C137.735 23.2167 138.456 21.8986 137.932 20.7624C137.029 18.793 135.488 17.172 133.484 16.1646C131.692 15.2556 129.665 14.9147 127.798 15.1495C126.462 15.3162 125.665 16.7099 126.249 17.9219C126.606 18.6718 127.395 19.1111 128.215 18.9975C129.339 18.8384 130.606 19.0505 131.73 19.6186C132.482 19.9974 133.681 20.8079 134.387 22.3304C134.759 23.1409 135.624 23.603 136.505 23.4439Z" fill="#590068"/>
<path d="M78.8345 53.0764H70.5829C68.1385 53.0764 66.1648 51.0994 66.1648 48.6679C66.1648 46.2288 68.1461 44.2594 70.5829 44.2594H78.8345C81.2789 44.2594 83.2526 46.2364 83.2526 48.6679C83.2526 51.107 81.2713 53.0764 78.8345 53.0764Z" fill="#FFA7A3"/>
<path d="M144.066 51.9023L135.92 53.2203C133.506 53.6142 131.237 51.9781 130.849 49.5769C130.455 47.1681 132.094 44.9032 134.501 44.5169L142.646 43.1989C145.06 42.805 147.33 44.4412 147.717 46.8424C148.112 49.2511 146.472 51.516 144.066 51.9023Z" fill="#FFA7A3"/>
<g style="mix-blend-mode:multiply" opacity="0.2">
<path d="M51.3696 41.1688C49.7755 41.1688 48.3939 40.4113 47.4753 38.9949L47.908 38.7146C48.9177 40.275 50.5498 40.934 52.402 40.5401C54.7781 40.0326 56.6911 37.995 57.0554 35.5786C57.7842 30.8217 59.8186 29.9354 63.0904 30.0339C66.0814 30.1172 67.1669 29.89 68.5637 26.8752L69.0343 27.0949C67.5237 30.3596 66.1952 30.6323 63.0752 30.5566C59.9553 30.4657 58.2472 31.2383 57.5716 35.662C57.1693 38.2828 55.0893 40.4947 52.5083 41.0476C52.1136 41.1309 51.734 41.1688 51.362 41.1688H51.3696Z" fill="#590068"/>
</g>
<g style="mix-blend-mode:multiply" opacity="0.2">
<path d="M44.6286 58.1741C44.0669 57.0985 43.8619 55.3184 44.6666 53.7505C45.1904 52.7279 46.3215 51.4402 48.7886 51.069C50.1246 50.8645 51.2861 50.8115 52.3185 50.7584C54.9526 50.6297 56.023 50.5085 56.1748 48.8799C56.2963 47.5543 55.6055 46.2893 54.9375 45.0622C54.3074 43.9033 53.7077 42.8049 53.9202 41.7823L54.4289 41.8884C54.2543 42.7216 54.8084 43.7366 55.3929 44.8123C56.0686 46.0394 56.8277 47.4331 56.6986 48.9178C56.5088 51.0539 54.854 51.1372 52.3565 51.266C51.3392 51.319 50.1854 51.372 48.8797 51.5689C46.6327 51.9098 45.6079 53.0687 45.1448 53.9777C44.4313 55.3866 44.6134 56.9773 45.1069 57.9317L44.6514 58.1666L44.6286 58.1741Z" fill="#590068"/>
</g>
<g style="mix-blend-mode:multiply" opacity="0.2">
<path d="M56.858 59.6588C55.1045 59.6588 53.9885 58.8483 53.3509 58.1666C51.5518 56.2275 51.4379 53.0839 52.5386 51.5614L52.9561 51.8644C51.9921 53.19 52.1211 56.076 53.7304 57.8106C54.7249 58.8786 57.0554 60.2724 61.5114 57.5455L61.7847 57.9848C59.7654 59.2195 58.1485 59.6512 56.8656 59.6512L56.858 59.6588Z" fill="#590068"/>
</g>
<g style="mix-blend-mode:multiply" opacity="0.2">
<path d="M96.5903 19.8989C95.5123 19.8989 94.404 19.6262 93.4779 19.0808L93.7436 18.6339C95.4896 19.6565 97.9263 19.6338 99.3003 18.5733C100.257 17.831 100.56 16.7175 100.166 15.3389C99.0574 11.4379 99.3915 8.43828 104.622 6.49915L104.804 6.98393C99.9228 8.78672 99.604 11.4682 100.667 15.195C101.115 16.7705 100.743 18.1113 99.6192 18.9748C98.8297 19.5808 97.7366 19.8837 96.5979 19.8837L96.5903 19.8989Z" fill="#590068"/>
</g>
<g style="mix-blend-mode:multiply" opacity="0.2">
<path d="M94.4952 73.3313C93.2654 73.7327 92.0508 73.4979 91.155 72.6874C89.8873 71.5436 89.4774 69.4757 90.0315 67.0139C90.5174 64.84 90.0923 62.9463 88.7942 61.5449C88.407 61.1283 87.944 60.7799 87.4278 60.4693C88.8397 60.1739 89.986 59.174 90.6844 57.5833C91.694 55.2958 91.5118 52.3946 90.2669 50.9781L89.8797 51.319C90.988 52.5764 91.1323 55.2882 90.2137 57.3788C89.781 58.356 88.7334 60.0073 86.6003 60.0527C84.8543 59.2952 82.5846 59.0528 80.0339 59.4013L80.1023 59.9164C83.7536 59.4089 86.7825 60.1285 88.407 61.8934C89.5837 63.1659 89.9708 64.9006 89.5229 66.9003C88.9308 69.5439 89.3939 71.7936 90.8058 73.0662C91.5118 73.71 92.3924 74.0357 93.3261 74.0357C93.7588 74.0357 94.2067 73.9675 94.6622 73.8161L94.5028 73.3237L94.4952 73.3313Z" fill="#590068"/>
</g>
<g style="mix-blend-mode:multiply" opacity="0.2">
<path d="M106.224 61.2571C108.759 63.1962 113.64 63.8931 117.565 61.098C112.699 66.4458 108.19 63.8174 106.224 61.2571Z" fill="#590068"/>
</g>
<g style="mix-blend-mode:multiply" opacity="0.2">
<path d="M129.825 63.7265C128.496 63.7265 127.168 63.1433 126.097 62.0222L126.469 61.6662C128.192 63.4614 130.227 63.4387 131.563 62.8176C133.233 62.0374 134.174 60.333 133.954 58.4848L134.47 58.4242C134.713 60.4997 133.658 62.4009 131.783 63.2796C131.153 63.575 130.485 63.719 129.825 63.719V63.7265Z" fill="#590068"/>
</g>
<g style="mix-blend-mode:multiply" opacity="0.2">
<path d="M130.356 73.1798C129.081 73.1798 127.524 72.9071 125.657 72.2027L125.839 71.7179C132.056 74.0434 134.455 71.6119 135.328 69.953C136.672 67.4154 136.049 63.5523 134.06 62.1586L134.356 61.7344C136.566 63.2872 137.256 67.4003 135.784 70.1878C135.222 71.2407 133.742 73.1723 130.356 73.1723V73.1798Z" fill="#590068"/>
</g>
<g style="mix-blend-mode:multiply" opacity="0.2">
<path d="M136.862 63.7946C135.837 59.9164 137.598 58.053 138.737 57.2955C140.505 56.1138 143.094 56.0154 144.506 57.0834L144.195 57.4924C143.102 56.6668 140.763 56.5607 139.025 57.7197C138 58.409 136.414 60.0906 137.363 63.6583L136.862 63.7871V63.7946Z" fill="#590068"/>
</g>
<g style="mix-blend-mode:multiply" opacity="0.2">
<path d="M141.196 35.8363L140.915 35.4045C141.439 35.0636 142.175 33.4351 142.115 31.6398C142.077 30.3597 141.621 28.6099 139.686 27.5343L139.283 27.3071L139.686 27.0798C141.181 26.2466 142.229 24.9059 142.639 23.3C142.973 21.982 142.821 20.6337 142.229 19.702L142.669 19.4293C143.337 20.4822 143.512 21.982 143.14 23.4364C142.73 25.0422 141.728 26.4057 140.308 27.3222C142.145 28.5266 142.585 30.3143 142.623 31.6398C142.684 33.5411 141.91 35.3818 141.181 35.8514L141.196 35.8363Z" fill="#590068"/>
</g>
<g style="mix-blend-mode:multiply" opacity="0.2">
<path d="M148.324 38.0177C146.525 38.0177 144.87 37.2223 143.929 35.8437L144.354 35.5559C145.364 37.033 147.3 37.7602 149.288 37.4193C150.981 37.1239 152.241 36.1467 152.583 34.8514L153.084 34.9802C152.689 36.4649 151.27 37.5935 149.38 37.9192C149.023 37.9798 148.674 38.0101 148.324 38.0101V38.0177Z" fill="#590068"/>
</g>
<g style="mix-blend-mode:multiply" opacity="0.2">
<path d="M149.835 47.9028L149.455 47.5543C151.399 45.4637 151.71 41.1991 149.182 38.8358L149.539 38.457C152.272 41.0173 151.945 45.6303 149.835 47.9028Z" fill="#590068"/>
</g>
<g style="mix-blend-mode:screen">
<path d="M117.519 37.0179C117.671 37.7678 116.927 38.548 115.864 38.7601C114.794 38.9798 116.32 37.5936 116.168 36.8437C116.016 36.0938 114.247 36.268 115.318 36.0484C116.388 35.8287 117.375 36.2604 117.527 37.0104L117.519 37.0179Z" fill="#7A7A7A"/>
</g>
<path d="M113.663 57.5454C113.61 57.2652 113.678 56.9773 113.845 56.7425C113.989 56.5456 114.126 56.235 114.126 55.8714C114.141 55.2048 113.716 54.6746 112.927 54.3489C112.501 54.1747 112.213 53.7581 112.213 53.296V52.8567C112.213 52.4173 112.479 52.031 112.873 51.8341C113.534 51.5084 113.936 50.9403 113.982 50.2358C114.012 49.7207 113.838 49.0617 113.283 48.5997C112.919 48.2967 112.737 47.8346 112.896 47.3877V47.3725C113.139 46.706 113.974 46.456 114.536 46.8953C115.591 47.721 116.191 49.0011 116.1 50.3797C116.031 51.425 115.576 52.3492 114.832 53.0309C115.864 53.8414 116.259 54.9397 116.244 55.9093C116.229 56.7122 115.955 57.4621 115.523 58.0378C114.976 58.7498 113.822 58.4317 113.663 57.5454Z" fill="#590068"/>
<path d="M87.6555 40.6689C86.7674 40.9946 85.8033 41.1915 84.7709 41.2597C81.6053 41.4642 78.6372 40.2977 77.1038 38.404C76.5268 37.692 76.8988 36.6012 77.7794 36.321L78.0223 36.2452C78.5537 36.071 79.1078 36.2907 79.4798 36.7073C80.3907 37.7071 82.3341 38.5025 84.5887 38.3586C86.0462 38.2677 89.3711 37.5859 90.6313 33.5107C90.8286 32.8593 91.4815 32.4578 92.1571 32.579L92.3772 32.6169C93.1667 32.7608 93.6677 33.5637 93.4324 34.3288C92.4835 37.4344 90.4491 39.6538 87.6707 40.6613L87.6555 40.6689Z" fill="#590068"/>
<path d="M130.728 36.3058C129.84 36.6315 128.876 36.8285 127.843 36.8967C124.678 37.1012 121.71 35.9347 120.176 34.041C119.599 33.3289 119.971 32.2382 120.852 31.9579L121.095 31.8822C121.626 31.7079 122.18 31.9276 122.552 32.3442C123.463 33.3441 125.406 34.1394 127.661 33.9955C129.119 33.9046 132.444 33.2229 133.704 29.1477C133.901 28.4962 134.554 28.0948 135.229 28.216L135.45 28.2539C136.239 28.3978 136.74 29.2007 136.505 29.9658C135.556 33.0714 133.521 35.2908 130.743 36.2983L130.728 36.3058Z" fill="#590068"/>
</g>
<defs>
<clipPath id="clip0_84_340">
<rect width="190" height="121.173" fill="white"/>
</clipPath>
</defs>
</svg>
