<svg width="36" height="36" viewBox="0 0 36 36" fill="none" xmlns="http://www.w3.org/2000/svg">
<path d="M23.565 19.0649C25.0356 17.9079 26.109 16.3213 26.6359 14.5259C27.1627 12.7304 27.1169 10.8153 26.5047 9.04714C25.8925 7.27895 24.7444 5.74553 23.2201 4.66023C21.6958 3.57492 19.8712 2.9917 18 2.9917C16.1288 2.9917 14.3042 3.57492 12.7799 4.66023C11.2556 5.74553 10.1075 7.27895 9.49531 9.04714C8.88312 10.8153 8.83726 12.7304 9.36414 14.5259C9.89101 16.3213 10.9644 17.9079 12.435 19.0649C9.91511 20.0745 7.71643 21.749 6.07333 23.9098C4.43024 26.0707 3.40434 28.6369 3.105 31.3349C3.08333 31.5319 3.10067 31.7312 3.15603 31.9215C3.2114 32.1118 3.3037 32.2893 3.42766 32.4439C3.67802 32.7562 4.04217 32.9562 4.44 32.9999C4.83782 33.0437 5.23673 32.9276 5.54898 32.6773C5.86123 32.4269 6.06123 32.0628 6.105 31.6649C6.43437 28.7327 7.83252 26.0247 10.0323 24.0581C12.2321 22.0916 15.0793 21.0045 18.03 21.0045C20.9806 21.0045 23.8279 22.0916 26.0277 24.0581C28.2275 26.0247 29.6256 28.7327 29.955 31.6649C29.9958 32.0335 30.1716 32.3739 30.4487 32.6205C30.7257 32.867 31.0842 33.0022 31.455 32.9999H31.62C32.0132 32.9547 32.3726 32.7559 32.6198 32.4468C32.8671 32.1378 32.9822 31.7435 32.94 31.3499C32.6392 28.6443 31.6078 26.0714 29.9563 23.9072C28.3047 21.7431 26.0954 20.0692 23.565 19.0649ZM18 17.9999C16.8133 17.9999 15.6533 17.648 14.6666 16.9888C13.6799 16.3295 12.9108 15.3924 12.4567 14.296C12.0026 13.1997 11.8838 11.9933 12.1153 10.8294C12.3468 9.66552 12.9182 8.59642 13.7574 7.7573C14.5965 6.91819 15.6656 6.34674 16.8295 6.11523C17.9933 5.88372 19.1997 6.00254 20.2961 6.45667C21.3925 6.91079 22.3295 7.67983 22.9888 8.66652C23.6481 9.65322 24 10.8133 24 11.9999C24 13.5912 23.3679 15.1174 22.2426 16.2426C21.1174 17.3678 19.5913 17.9999 18 17.9999Z" fill="#F8E1D4"/>
</svg>
