<svg width="1920" height="438" viewBox="0 0 1920 438" fill="none" xmlns="http://www.w3.org/2000/svg">
<path d="M48 10C32 23.3333 16 23.3333 0 10V437.5H1920V10C1904 -3.33334 1888 -3.33334 1872 10C1856 23.3333 1840 23.3333 1824 10C1808 -3.33334 1792 -3.33334 1776 10C1760 23.3333 1744 23.3333 1728 10C1712 -3.33334 1696 -3.33334 1680 10C1664 23.3333 1648 23.3333 1632 10C1616 -3.33334 1600 -3.33334 1584 10C1568 23.3333 1552 23.3333 1536 10C1520 -3.33334 1504 -3.33334 1488 10C1472 23.3333 1456 23.3333 1440 10C1424 -3.33334 1408 -3.33334 1392 10C1376 23.3333 1360 23.3333 1344 10C1328 -3.33334 1312 -3.33334 1296 10C1280 23.3333 1264 23.3333 1248 10C1232 -3.33334 1216 -3.33334 1200 10C1184 23.3333 1168 23.3333 1152 10C1136 -3.33334 1120 -3.33334 1104 10C1088 23.3333 1072 23.3333 1056 10C1040 -3.33334 1024 -3.33334 1008 10C992 23.3333 976 23.3333 960 10C944 -3.33334 928 -3.33334 912 10C896 23.3333 880 23.3333 864 10C848 -3.33334 832 -3.33334 816 10C800 23.3333 784 23.3333 768 10C752 -3.33334 736 -3.33334 720 10C704 23.3333 688 23.3333 672 10C656 -3.33334 640 -3.33334 624 10C608 23.3333 592 23.3333 576 10C560 -3.33334 544 -3.33334 528 10C512 23.3333 496 23.3333 480 10C464 -3.33334 448 -3.33334 432 10C416 23.3333 400 23.3333 384 10C368 -3.33334 352 -3.33334 336 10C320 23.3333 304 23.3333 288 10C272 -3.33334 256 -3.33334 240 10C224 23.3333 208 23.3333 192 10C176 -3.33334 160 -3.33334 144 10C128 23.3333 112 23.3333 96 10C80 -3.33334 64 -3.33334 48 10Z" fill="#590068"/>
</svg>
