<svg width="130" height="45" viewBox="0 0 130 45" fill="none" xmlns="http://www.w3.org/2000/svg">
<path d="M50.83 11.3697V2.96973H52.99V9.68973H55.99V2.96973H58.15V9.68973H59.05V12.9297H57.01L56.89 11.3697H50.83Z" fill="#FFFCF5"/>
<path d="M76.27 11.3697H69.61V2.96973H76.27V4.64973H71.77V6.26973H75.31V7.94973H71.77V9.68973H76.27V11.3697Z" fill="#FFFCF5"/>
<path d="M94.15 11.3697H91.99V7.94973H88.99V11.3697H86.83V2.96973H88.99V6.26973H91.99V2.96973H94.15V11.3697Z" fill="#FFFCF5"/>
<path d="M109.27 11.3697H107.11V4.64973H104.59V2.96973H111.79V4.64973H109.27V11.3697Z" fill="#FFFCF5"/>
<path d="M122.23 2.96973H127.27C128.11 2.96973 128.72 3.15973 129.1 3.53973C129.48 3.91973 129.67 4.52973 129.67 5.36973V6.56973C129.67 7.40973 129.48 8.01973 129.1 8.39973C128.72 8.77973 128.11 8.96973 127.27 8.96973H124.39V11.3697H122.23V2.96973ZM127.51 5.36973C127.51 4.88973 127.27 4.64973 126.79 4.64973H124.39V7.28973H126.79C127.27 7.28973 127.51 7.04973 127.51 6.56973V5.36973Z" fill="#FFFCF5"/>
<path d="M56.2399 25.6496C54.7299 25.8096 53.4699 25.8896 52.4799 25.8896C51.8199 25.8896 51.3299 25.7096 51.0199 25.3396C50.7099 24.9696 50.5499 24.3996 50.5499 23.6096V19.7696C50.5499 18.9296 50.7099 18.3196 51.0299 17.9396C51.3499 17.5596 51.8699 17.3696 52.5799 17.3696H56.2399V19.0496H52.9799C52.5699 19.0496 52.3699 19.2896 52.3699 19.7696V23.6096C52.3699 23.7896 52.4199 23.9396 52.5099 24.0496C52.5999 24.1596 52.7199 24.2096 52.8599 24.2096C52.9999 24.2096 53.1599 24.2096 53.3299 24.2096C53.4999 24.2096 53.6799 24.1996 53.8599 24.1896C54.0399 24.1796 54.2299 24.1696 54.4099 24.1696C54.5999 24.1696 54.8399 24.1496 55.1299 24.1196C55.4199 24.0996 55.7899 24.0696 56.2299 24.0396V25.6596L56.2399 25.6496Z" fill="#FFFCF5"/>
<path d="M61.93 25.7696H60.1V19.0496H57.96V17.3696H64.06V19.0496H61.92V25.7696H61.93Z" fill="#FFFCF5"/>
<path d="M72.41 25.7696H70.58V20.6096L68.14 25.7696H66.21V17.3696H68.04V22.5296L70.48 17.3696H72.41V25.7696Z" fill="#FFFCF5"/>
<path d="M81.16 21.0896L79.7399 24.0896H78.3199L76.8999 21.0896V25.7696H75.0699V17.3696H76.9999L79.0299 21.8096L81.0599 17.3696H82.9899V25.7696H81.16V21.0896Z" fill="#FFFCF5"/>
<path d="M87.35 25.8899C87.01 25.8899 86.66 25.8499 86.3 25.7699V24.1499H87.22C87.42 24.1499 87.55 24.0599 87.63 23.8699C87.66 23.7899 87.68 23.6999 87.68 23.6099C87.68 23.5199 87.66 23.4399 87.63 23.3599L84.83 17.3599H86.86L88.69 21.6199L90.22 17.3599H92.26L89.67 23.9599C89.43 24.5899 89.15 25.0599 88.82 25.3799C88.45 25.7199 87.97 25.8799 87.37 25.8799L87.35 25.8899Z" fill="#FFFCF5"/>
<path d="M95.3499 25.3896C95.0699 25.7196 94.7299 25.8896 94.3199 25.8896C93.9099 25.8896 93.5299 25.8496 93.1699 25.7696V24.1496H93.6299C93.7599 24.1496 93.8699 24.0996 93.9499 23.9896C94.0299 23.8796 94.0799 23.7596 94.0899 23.6096L94.3999 17.3696H100.05V25.7696H98.2199V19.0496H96.0799L95.8299 24.0296C95.7999 24.6096 95.6399 25.0596 95.3599 25.3896H95.3499Z" fill="#FFFCF5"/>
<path d="M108.79 25.7696H106.96V23.0096H105.59L104.32 25.7696H102.39L103.71 22.8896C103.28 22.7696 102.96 22.5296 102.77 22.1596C102.58 21.7896 102.48 21.2796 102.48 20.6096V19.7696C102.48 18.9296 102.64 18.3196 102.96 17.9396C103.28 17.5596 103.8 17.3696 104.51 17.3696H108.78V25.7696H108.79ZM104.31 20.6096C104.31 21.0896 104.51 21.3296 104.92 21.3296H106.95V19.0496H104.92C104.51 19.0496 104.31 19.2896 104.31 19.7696V20.6096Z" fill="#FFFCF5"/>
<path d="M111.43 25.7696V17.3696H113.26V24.0896H115.8V17.3696H117.63V24.0896H118.39V27.3296H116.66L116.56 25.7696H111.42H111.43Z" fill="#FFFCF5"/>
<path d="M123.99 25.7696H120.33V24.0896H121.25V19.0496H120.33V17.3696H123.99V19.0496H123.07V24.0896H123.99V25.7696Z" fill="#FFFCF5"/>
<path d="M125.83 15.0898H127.56V16.7698H125.83V15.0898ZM129.69 25.7698H126.03V24.0898H126.95V19.0498H126.03V17.3698H129.69V19.0498H128.77V24.0898H129.69V25.7698ZM128.17 15.0898H129.9V16.7698H128.17V15.0898Z" fill="#FFFCF5"/>
<path d="M57.94 35.4895L56.52 38.4895H55.1L53.68 35.4895V40.1695H51.85V31.7695H53.78L55.81 36.2095L57.84 31.7695H59.77V40.1695H57.94V35.4895Z" fill="#FFFCF5"/>
<path d="M77.58 37.8899C77.58 38.7299 77.42 39.3399 77.1 39.7199C76.78 40.0999 76.26 40.2899 75.55 40.2899H73.01C72.3 40.2899 71.78 40.0999 71.46 39.7199C71.14 39.3399 70.98 38.7299 70.98 37.8899V34.0499C70.98 33.2099 71.14 32.5999 71.46 32.2199C71.78 31.8399 72.3 31.6499 73.01 31.6499H75.55C76.26 31.6499 76.78 31.8399 77.1 32.2199C77.42 32.5999 77.58 33.2099 77.58 34.0499V37.8899ZM75.75 34.0499C75.75 33.5699 75.55 33.3299 75.14 33.3299H73.41C73 33.3299 72.8 33.5699 72.8 34.0499V37.8899C72.8 38.3699 73 38.6099 73.41 38.6099H75.14C75.55 38.6099 75.75 38.3699 75.75 37.8899V34.0499Z" fill="#FFFCF5"/>
<path d="M88.36 38.4295C90.09 38.5495 91.31 38.6095 92.02 38.6095C92.18 38.6095 92.3 38.5595 92.39 38.4495C92.48 38.3395 92.53 38.1995 92.53 38.0095V37.5295C92.53 37.0495 92.33 36.8095 91.92 36.8095H89.48V35.1295H91.72C92.13 35.1295 92.33 34.8895 92.33 34.4095V34.1695C92.33 33.6895 92.13 33.4495 91.72 33.4495H88.46V31.7695H92.22C92.89 31.7695 93.37 31.9495 93.69 32.2995C94 32.6595 94.16 33.1995 94.16 33.9295C94.16 34.4095 94.07 34.7995 93.88 35.0995C93.69 35.3995 93.45 35.6095 93.14 35.7295C93.69 35.9095 94.06 36.3395 94.26 37.0295C94.33 37.2795 94.36 37.5695 94.36 37.8895V38.0095C94.36 38.7895 94.2 39.3695 93.89 39.7395C93.58 40.1095 93.09 40.2895 92.42 40.2895C91.29 40.2895 89.93 40.2095 88.35 40.0495V38.4295H88.36Z" fill="#FFFCF5"/>
<path d="M110.64 31.6499C110.81 31.6499 111.11 31.6899 111.56 31.7699V33.3899H111.15C111.05 33.3899 110.96 33.4299 110.88 33.4999C110.8 33.5799 110.74 33.6599 110.7 33.7499L109.73 35.9099L111.71 40.1699H109.78L108.2 36.7499H107.28V40.1699H105.45V31.7699H107.28V35.0699H108.2L109.22 32.7899C109.37 32.4499 109.55 32.1799 109.77 31.9699C109.99 31.7599 110.28 31.6499 110.64 31.6499Z" fill="#FFFCF5"/>
<path d="M124.2 40.2898C123.86 40.2898 123.51 40.2498 123.15 40.1698V38.5498H124.07C124.27 38.5498 124.4 38.4598 124.48 38.2698C124.51 38.1898 124.53 38.0998 124.53 38.0098C124.53 37.9198 124.51 37.8398 124.48 37.7598L121.68 31.7598H123.71L125.54 36.0198L127.07 31.7598H129.11L126.52 38.3598C126.28 38.9898 126 39.4598 125.67 39.7798C125.3 40.1198 124.82 40.2798 124.22 40.2798L124.2 40.2898Z" fill="#FFFCF5"/>
<g opacity="0.5">
<path d="M25.2199 44.6798C34.2774 44.6798 41.6199 43.6993 41.6199 42.4898C41.6199 41.2803 34.2774 40.2998 25.2199 40.2998C16.1625 40.2998 8.81995 41.2803 8.81995 42.4898C8.81995 43.6993 16.1625 44.6798 25.2199 44.6798Z" fill="url(#paint0_radial_13_43)" style="mix-blend-mode:overlay"/>
</g>
<path d="M32.3 9.9898C34.67 10.1798 36.51 12.0698 36.87 14.4598C37.43 11.9198 35.28 9.3198 32.71 9.0398C32.16 7.0698 30.77 5.3298 28.96 4.5498C30.55 6.0698 31.58 7.9198 31.92 9.9598L32.3 9.9898Z" fill="#FFFCF5"/>
<path d="M24.5699 7.52968C25.4499 5.13968 23.6099 2.79968 21.0899 2.75968C18.8299 2.55968 16.5999 3.84968 15.3999 5.69968C18.3499 3.28968 24.3799 2.31968 24.5699 7.52968Z" fill="#FFFCF5"/>
<path d="M5.28989 10.7699C5.96989 7.42994 8.66989 4.87994 12.2099 5.62994C8.74989 3.19994 4.37989 6.91994 5.28989 10.7699Z" fill="#FFFCF5"/>
<path d="M12.85 18.66C14.49 16.82 16.27 16.18 18.72 16.41C16.81 14.59 13.04 15.96 12.85 18.66Z" fill="#FFFCF5"/>
<path d="M40.97 18.2299C40.62 17.4599 40.19 16.8199 39.83 16.3499C40.38 14.8999 40.4499 13.2299 40.0099 11.6799C39.1299 8.52985 36.4899 7.15985 35.4799 6.73985C35.0499 5.68985 33.6499 2.98985 30.4799 2.09985C30.01 1.96985 29.5399 1.88985 29.08 1.85985C27.94 1.75985 26.94 1.95985 26.18 2.19985C24.57 0.349851 22.18 0.129851 21.11 0.0298513C17.43 -0.280149 14.53 1.67985 13.11 2.89985C12.34 2.46985 11.27 2.05985 9.95995 2.00985C9.39995 1.98985 8.84995 2.03985 8.31995 2.14985C6.42995 2.53985 4.73995 3.79985 3.66995 5.59985C3.21995 6.35985 2.87995 7.14985 2.65995 7.96985C0.0899515 10.0799 -0.460049 13.5599 0.349951 15.9899C1.47995 19.3399 5.50995 21.4799 9.43995 20.9599C9.57995 21.5799 9.80995 22.1799 10.11 22.7399C10.83 24.0499 11.77 25.1699 12.91 26.0699C14.88 27.6199 16.99 28.4099 19.17 28.4099H19.4599L19.67 28.7299H19.68C19.93 29.1199 20.18 29.5099 20.43 29.8999C21.84 32.1099 23.25 34.3099 24.67 36.5199L25.68 38.0899L27.09 32.8199C28.9699 33.7899 31.19 33.8498 33.09 32.9099C33.8899 32.5199 34.59 31.9799 35.16 31.2999C35.5799 30.8099 35.91 30.2299 36.2 29.5999C39.36 28.6099 41.7099 25.2799 41.7299 21.6699C41.7299 20.4899 41.4799 19.3299 40.97 18.2299ZM27.1 3.65985C27.64 3.52985 28.2599 3.44985 28.9599 3.49985C29.3099 3.52985 29.67 3.58985 30.04 3.68985C32.94 4.50985 33.95 7.31985 34.06 7.63985L34.1899 8.03985L34.59 8.15985C34.7099 8.19985 37.5799 9.13985 38.4199 12.1299C38.7999 13.4599 38.69 14.9599 38.13 16.1399L38.04 16.3199C37.87 16.6399 37.6699 16.9399 37.4399 17.1899C35.7399 19.0999 31.8699 19.6499 28.57 17.1999L28.16 16.8999L27.7099 17.1199C27.6099 17.1699 25.2899 18.3099 23.15 16.9899C22.15 16.3599 21.61 15.4699 21.33 14.7599C21.82 14.5699 22.49 14.2599 23.2099 13.8099C24.5599 12.9699 26.33 11.4499 27.12 8.99985C27.75 7.00985 27.7299 5.15985 27.1 3.65985ZM8.35995 16.8499C7.43995 16.9099 6.45995 16.5099 5.69995 15.8199C6.45995 17.1399 8.00995 17.8498 9.50995 17.7199C9.35995 18.2399 9.27995 18.7698 9.26995 19.3099C6.10995 19.7499 2.78995 18.0599 1.91995 15.4599C1.40995 13.9499 1.59995 11.9099 2.72995 10.3099C2.91995 11.2399 3.22995 12.2699 3.64995 12.8499C3.39995 11.4399 3.71995 10.1199 4.10995 8.88985L4.12995 8.86985L4.17995 8.68985C4.17995 8.68985 4.18995 8.65985 4.18995 8.64985C4.36995 7.88985 4.67995 7.14985 5.08995 6.43985C5.91995 5.03985 7.21995 4.06985 8.65995 3.76985C9.05995 3.67985 9.47995 3.64985 9.89995 3.65985C11.17 3.70985 12.14 4.19985 12.74 4.60985L13.29 4.98985L13.77 4.52985C14.77 3.56985 17.4799 1.37985 20.99 1.67985C21.94 1.75985 23.93 1.93985 25.09 3.44985C25.1399 3.49985 25.18 3.55985 25.2299 3.63985C26.0499 4.83985 26.16 6.55985 25.54 8.48985C24.91 10.4699 23.45 11.7099 22.33 12.4099C21.5 12.9299 20.76 13.2299 20.3899 13.3599C19.2899 12.8399 16.26 11.7199 13.25 13.2699C11.93 13.9399 11.06 14.8999 10.51 15.6699C10.04 16.3199 9.25995 16.7999 8.35995 16.8499ZM35.34 28.1299C35.1899 28.1599 32.0799 28.5699 30.7199 28.1199C30.83 28.2199 30.9399 28.3099 31.0599 28.3899C31.07 28.3999 31.07 28.4099 31.08 28.4099C31.95 29.0699 32.9899 29.5999 34.1899 29.8199C34.09 29.9599 33.8899 30.2399 33.8899 30.2399C33.47 30.7399 32.9599 31.1399 32.3699 31.4299C30.6699 32.2599 28.6399 32.0399 27.07 30.8699L26.09 30.1399L25.0499 34.0499C23.9699 32.3699 22.8899 30.6899 21.82 29.0099C21.6299 28.7299 21.45 28.4399 21.27 28.1599C23.85 27.5399 25.64 25.9099 26.6 24.7999C27.33 25.7399 28.3 26.4499 29.27 27.0899C29.28 27.0999 29.2899 27.1199 29.3099 27.1199C29.2799 27.0699 29.25 27.0199 29.2199 26.9799C27.7999 24.6999 27.24 23.0299 27.02 22.1899C27.01 22.1699 27.01 22.1499 27 22.1199C26.94 21.8599 26.91 21.6799 26.9 21.5999C26.8899 21.5699 26.8899 21.5499 26.8899 21.5499L25.92 22.9999C25.52 23.5699 23.3799 26.4099 19.83 26.7299C19.74 26.7299 19.66 26.7299 19.53 26.7499C19.46 26.7599 19.3899 26.7599 19.3099 26.7599H19.25C16.4799 26.8099 14.57 25.2699 13.94 24.7699C12.97 24.0099 12.17 23.0599 11.56 21.9399C11.22 21.3199 11 20.6199 10.94 19.9199C10.93 19.7499 10.92 19.5699 10.92 19.3999C10.92 18.6399 11.11 17.8899 11.47 17.2299L11.56 17.0699C11.83 16.6099 12.61 15.4499 14 14.7399C16.3 13.5599 18.72 14.4199 19.61 14.8199C19.62 14.8599 19.6299 14.8999 19.6399 14.9399L19.69 15.0799C20.03 16.0699 20.76 17.4499 22.29 18.3899C24.59 19.8099 26.9699 19.1898 27.9799 18.7999C29.66 19.9398 31.57 20.5099 33.3699 20.5099C35.43 20.5099 37.36 19.7599 38.68 18.2899C38.77 18.1799 38.8499 18.0699 38.9399 17.9599C39.1199 18.2399 39.31 18.5599 39.47 18.9199C39.88 19.8099 40.09 20.7299 40.08 21.6699C40.07 24.6399 38.0299 27.5399 35.34 28.1299Z" fill="#FFFCF5"/>
<defs>
<radialGradient id="paint0_radial_13_43" cx="0" cy="0" r="1" gradientUnits="userSpaceOnUse" gradientTransform="translate(25.1334 42.5734) scale(11.661 2.346)">
<stop stop-color="#FCF7FB"/>
<stop offset="0.99" stop-color="#FCF7FB" stop-opacity="0"/>
</radialGradient>
</defs>
</svg>
