<svg width="190" height="119" viewBox="0 0 190 119" fill="none" xmlns="http://www.w3.org/2000/svg">
<g style="mix-blend-mode:multiply" opacity="0.3">
<path d="M86.9062 118.8C53.9091 118.8 27.1598 114.107 27.1598 108.318C27.1598 102.529 53.9091 97.836 86.9062 97.836C119.903 97.836 146.653 102.529 146.653 108.318C146.653 114.107 119.903 118.8 86.9062 118.8Z" fill="#F8E1D4"/>
</g>
<path d="M69.1462 85.6551C66.568 89.3153 67.3457 100.964 67.6416 101.386C67.9459 101.809 69.7464 104.446 66.6779 105.173C63.6179 105.892 51.3102 106.492 46.7456 103.669C48.0051 99.0448 52.0287 94.7844 63.6771 98.9264C62.3584 95.0803 62.8402 87.7008 63.4996 84.4548C64.1589 81.2088 69.1462 85.6551 69.1462 85.6551Z" fill="#F7D9C5"/>
<g style="mix-blend-mode:multiply" opacity="0.2">
<path d="M46.7456 103.669C48.0051 99.0448 52.0287 94.7844 63.6771 98.9264C62.3584 95.0803 62.8402 87.7008 63.4996 84.4548C63.5503 84.2012 63.6348 84.0152 63.7363 83.8461L64.8098 85.6889C64.4041 86.4074 63.0093 95.1902 64.8098 99.7887C66.6103 104.379 62.8318 99.0702 59.814 98.4869C56.7963 97.9036 51.2595 98.2164 48.6475 102.494C50.1437 104.953 67.0076 106.23 68.3686 102.857C68.5968 103.745 68.4277 104.776 66.6949 105.182C63.6348 105.9 51.3271 106.5 46.7625 103.677L46.7456 103.669Z" fill="#590068"/>
</g>
<path d="M110.152 87.0921C112.73 90.7523 111.953 102.401 111.657 102.823C111.361 103.246 109.552 105.883 112.62 106.61C115.68 107.329 127.988 107.929 132.553 105.106C131.293 100.482 127.27 96.2215 115.621 100.363C116.94 96.5173 116.458 89.1378 115.799 85.8918C115.14 82.6458 110.152 87.0921 110.152 87.0921Z" fill="#F7D9C5"/>
<g style="mix-blend-mode:multiply" opacity="0.2">
<path d="M132.553 105.106C131.293 100.482 127.27 96.2215 115.621 100.363C116.94 96.5173 116.458 89.1378 115.799 85.8918C115.748 85.6382 115.664 85.4522 115.562 85.2832L114.489 87.1259C114.894 87.8445 116.289 96.6272 114.489 101.226C112.688 105.816 116.467 100.507 119.484 99.9155C122.502 99.3237 128.039 99.645 130.651 103.922C129.155 106.382 112.291 107.658 110.93 104.286C110.702 105.173 110.871 106.205 112.604 106.61C115.664 107.329 127.971 107.929 132.536 105.106H132.553Z" fill="#590068"/>
</g>
<path d="M164.243 52.8064C168.343 51.7244 174.328 45.2409 174.421 44.9282C171.538 41.0989 171.674 37.6331 173.88 37.0499C176.086 36.4666 177.168 37.9036 177.346 42.1809C180.465 36.9231 191.91 35.9932 183.068 42.8994C182.375 43.4404 182.156 44.235 182.815 44.0744C195.241 41.0228 189.146 48.7912 182.527 47.5402C190.194 50.6171 187.21 55.4184 177.532 49.7464C174.336 54.9704 162.849 59.4759 162.849 59.4759L164.243 52.8149V52.8064Z" fill="#F7D9C5"/>
<g style="mix-blend-mode:multiply">
<path d="M178.58 43.4404C180.169 44.5816 179.755 47.6416 178.943 48.1995C179.696 45.3677 178.166 43.956 178.166 43.956C178.259 43.508 178.588 43.4489 178.588 43.4489L178.58 43.4404Z" fill="#E6E6E6"/>
</g>
<g style="mix-blend-mode:multiply" opacity="0.2">
<path d="M175.41 45.3762C174.024 48.0812 166.619 52.8572 163.872 54.5647L164.243 52.8064C168.343 51.7244 174.328 45.2409 174.421 44.9282C171.538 41.0989 171.674 37.6331 173.88 37.0499C172.646 37.9713 174.556 44.1167 175.41 45.3846V45.3762Z" fill="#590068"/>
</g>
<g style="mix-blend-mode:multiply">
<path d="M186.154 38.4108C183.998 38.0304 180.651 39.5013 177.346 42.1809C179.391 38.732 185.03 37.1429 186.154 38.4108Z" fill="#E6E6E6"/>
</g>
<g style="mix-blend-mode:multiply">
<path d="M182.899 44.6407C182.899 44.6407 182.866 44.3956 182.502 44.0406C182.57 44.0828 182.663 44.0997 182.806 44.0659C187.743 42.8571 189.755 43.3559 189.966 44.3111C188.631 43.2037 183.795 43.8377 182.891 44.6323L182.899 44.6407Z" fill="#E6E6E6"/>
</g>
<path d="M25.765 52.8064C21.6653 51.7244 15.6805 45.2409 15.5875 44.9282C18.47 41.0989 18.3348 37.6331 16.1285 37.0499C13.9223 36.4666 12.8403 37.9036 12.6628 42.1809C9.54357 36.9231 -1.90191 35.9932 6.94001 42.8994C7.63317 43.4404 7.85295 44.235 7.19361 44.0744C-5.23243 41.0228 0.862244 48.7912 7.48101 47.5402C-0.185938 50.6171 2.798 55.4184 12.4768 49.7464C15.6721 54.9704 27.1598 59.4759 27.1598 59.4759L25.765 52.8149V52.8064Z" fill="#F7D9C5"/>
<g style="mix-blend-mode:multiply" opacity="0.2">
<path d="M11.4286 43.4404C9.83939 44.5816 10.2536 47.6416 11.0651 48.1995C10.3128 45.3677 11.8428 43.956 11.8428 43.956C11.7498 43.508 11.4201 43.4489 11.4201 43.4489L11.4286 43.4404Z" fill="#590068"/>
</g>
<g style="mix-blend-mode:multiply" opacity="0.2">
<path d="M14.59 45.3762C15.9763 48.0812 23.3812 52.8572 26.1285 54.5647L25.7565 52.8064C21.6568 51.7244 15.672 45.2409 15.579 44.9282C18.4615 41.0989 18.3263 37.6331 16.12 37.0499C17.3542 37.9713 15.4438 44.1167 14.59 45.3846V45.3762Z" fill="#590068"/>
</g>
<g style="mix-blend-mode:multiply">
<path d="M3.84618 38.4108C6.00172 38.0304 9.34914 39.5013 12.6543 42.1809C10.6087 38.732 4.9789 37.1429 3.84618 38.4108Z" fill="#E6E6E6"/>
</g>
<g style="mix-blend-mode:multiply">
<path d="M7.10063 44.6407C7.10063 44.6407 7.13444 44.3956 7.49792 44.0406C7.4303 44.0828 7.33732 44.0997 7.19361 44.0659C2.25701 42.8571 0.245176 43.3559 0.0338492 44.3111C1.36944 43.2037 6.2046 43.8377 7.10908 44.6323L7.10063 44.6407Z" fill="#E6E6E6"/>
</g>
<path d="M83.3136 11.8597C81.6315 6.21302 69.6196 -3.38968 59.7802 8.6137C55.0972 5.01268 41.6484 6.21302 43.5672 19.6619C40.5664 17.8614 37.3204 20.1437 37.8022 23.3812C30.1184 25.5452 28.4362 27.9459 30.6002 34.4294C24.9535 36.2299 22.4345 43.7954 26.6357 50.3973C20 55.0549 21.1158 68.7743 31.437 69.6112C31.0736 76.94 39.0026 76.847 40.2029 74.4125C40.2621 86.9315 55.7566 90.6255 62.2993 84.6238C65.3001 88.47 78.2671 87.743 80.5495 75.4945C82.8318 63.246 91.4793 17.3711 91.4793 17.3711L83.3136 11.8512V11.8597Z" fill="#F1C6B0"/>
<path d="M101.572 4.16737C94.4886 -2.43449 84.0406 -0.397293 84.0406 9.08707C80.5579 8.85038 79.8394 16.6526 82.6035 17.4894C75.6382 17.2527 77.0837 26.0186 77.9205 27.3373C74.9197 27.4556 75.038 32.257 77.8022 34.3026C80.5664 36.3483 77.202 41.3863 72.4007 38.9856C70.4818 40.186 69.5182 45.7143 74.8014 47.7515C73.8377 55.4353 76.9653 75.131 78.5207 78.377C80.0845 81.623 86.0862 86.0609 93.7701 82.3415C103.018 95.5537 117.785 84.7422 117.785 84.7422C136.399 95.3085 144.328 80.896 145.046 77.7768C156.576 79.459 157.658 69.8478 157.058 66.6103C174.59 57.2443 160.178 40.6678 152.139 42.1133C161.141 28.1826 143.609 22.1809 140.127 24.6999C143.973 15.5706 132.798 11.4877 129.915 15.6974C131.716 6.08622 118.267 4.53086 116.948 6.93153C117.667 -0.63398 103.381 -2.67963 101.581 4.16737H101.572Z" fill="white"/>
<g style="mix-blend-mode:multiply">
<path d="M33.5926 49.7887C29.8225 43.8631 32.0879 37.0837 37.1429 35.4692C35.2071 29.6534 36.7118 27.4979 43.601 25.5621C43.1699 22.6543 46.0778 20.6086 48.7659 22.2232C47.0414 10.1606 59.104 9.08707 63.3052 12.3161C71.1074 2.79797 80.4142 8.41928 83.5165 13.3474C83.9307 12.9417 84.4463 12.705 85.055 12.7473C85.055 4.24345 94.421 2.40913 100.778 8.33475C102.392 2.1978 115.207 4.02367 114.556 10.8115C115.74 8.65596 127.802 10.0592 126.188 18.6729C128.774 14.9028 138.783 18.563 135.342 26.7456C138.462 24.4886 154.184 29.8648 146.112 42.3584C153.322 41.0651 166.247 55.9256 150.524 64.328C151.065 67.2358 150.093 75.8495 139.755 74.3449C139.112 77.1429 132.003 90.0676 115.309 80.5917C115.309 80.5917 102.063 90.279 93.7701 78.4362C87.6839 81.3863 82.7811 78.6221 80.7523 75.9341C77.126 83.3812 67.9205 83.4996 65.5621 80.4818C59.6957 85.8664 45.8073 82.5528 45.7481 71.3271C44.6746 73.508 37.5655 73.5926 37.8867 67.0161C28.6306 66.2637 27.6331 53.9645 33.5757 49.7887H33.5926Z" fill="#F8E1D4"/>
</g>
<path d="M105.114 50.1014C99.3952 50.1014 94.7591 45.4653 94.7591 39.7464C94.7591 34.0275 99.3952 29.3914 105.114 29.3914C110.833 29.3914 115.469 34.0275 115.469 39.7464C115.469 45.4653 110.833 50.1014 105.114 50.1014Z" fill="#F2F2F2"/>
<path d="M105.114 29.3914C107.43 29.3914 109.569 30.1606 111.293 31.4539C113.026 33.3052 114.091 35.7819 114.091 38.5207C114.091 44.2435 109.451 48.8757 103.736 48.8757C101.42 48.8757 99.2815 48.1065 97.5571 46.8132C95.8242 44.962 94.7591 42.4852 94.7591 39.7464C94.7591 34.0237 99.3999 29.3914 105.114 29.3914Z" fill="white"/>
<path d="M100.879 39.7464C100.879 41.9611 102.671 43.7532 104.886 43.7532C107.101 43.7532 108.893 41.9611 108.893 39.7464C108.893 37.5317 107.101 35.7396 104.886 35.7396C102.671 35.7396 100.879 37.5317 100.879 39.7464Z" fill="#590068"/>
<path d="M101.961 39.7464C101.961 41.3609 103.271 42.6712 104.886 42.6712C106.5 42.6712 107.811 41.3609 107.811 39.7464C107.811 38.1319 106.5 36.8216 104.886 36.8216C103.271 36.8216 101.961 38.1319 101.961 39.7464Z" fill="#211406"/>
<path d="M103.17 39.7464C103.17 40.6932 103.939 41.4624 104.886 41.4624C105.833 41.4624 106.602 40.6932 106.602 39.7464C106.602 38.7997 105.833 38.0304 104.886 38.0304C103.939 38.0304 103.17 38.7997 103.17 39.7464Z" fill="black"/>
<path d="M116.847 29.0448C118.216 28.7912 119.019 27.3204 118.436 26.0524C117.43 23.8546 115.714 22.0456 113.483 20.9214C111.488 19.907 109.231 19.5266 107.151 19.7887C105.664 19.9746 104.776 21.53 105.427 22.8825C105.824 23.7194 106.703 24.2096 107.616 24.0828C108.867 23.9053 110.279 24.142 111.53 24.776C112.367 25.1986 113.702 26.1031 114.489 27.8022C114.903 28.7067 115.866 29.2223 116.847 29.0448Z" fill="#590068"/>
<path d="M50.7946 26.1623C49.4252 25.9087 48.6222 24.4379 49.2055 23.1699C50.2114 20.9721 51.9273 19.1631 54.159 18.0389C56.1539 17.0245 58.4109 16.6441 60.4903 16.9062C61.9781 17.0921 62.8656 18.6475 62.2147 20C61.8175 20.8369 60.9383 21.3271 60.0254 21.2003C58.7743 21.0228 57.3627 21.2595 56.1116 21.8935C55.2748 22.3161 53.9392 23.2206 53.153 24.9197C52.7388 25.8242 51.7752 26.3398 50.7946 26.1623Z" fill="#590068"/>
<path d="M115.021 59.2308H124.21C126.932 59.2308 129.129 57.0245 129.129 54.3111C129.129 51.5892 126.923 49.3914 124.21 49.3914H115.021C112.299 49.3914 110.101 51.5976 110.101 54.3111C110.101 57.033 112.308 59.2308 115.021 59.2308Z" fill="#FFA7A3"/>
<path d="M42.3753 57.9205L51.4455 59.3914C54.1336 59.8309 56.661 58.0051 57.0922 55.3254C57.5317 52.6374 55.7058 50.1099 53.0262 49.6788L43.9561 48.2079C41.268 47.7684 38.7405 49.5942 38.3094 52.2739C37.8698 54.962 39.6957 57.4894 42.3753 57.9205Z" fill="#FFA7A3"/>
<g style="mix-blend-mode:multiply" opacity="0.2">
<path d="M145.604 45.9425C147.38 45.9425 148.918 45.0972 149.941 43.5165L149.459 43.2037C148.335 44.9451 146.517 45.6805 144.455 45.2409C141.809 44.6746 139.679 42.4007 139.273 39.7041C138.462 34.3956 136.196 33.4066 132.553 33.5165C129.222 33.6095 128.014 33.3559 126.458 29.9915L125.934 30.2367C127.616 33.88 129.096 34.1843 132.57 34.0997C136.044 33.9983 137.946 34.8605 138.698 39.7971C139.146 42.7219 141.462 45.1902 144.336 45.8073C144.776 45.9003 145.199 45.9425 145.613 45.9425H145.604Z" fill="#590068"/>
</g>
<g style="mix-blend-mode:multiply" opacity="0.2">
<path d="M153.102 64.9197C153.728 63.7194 153.956 61.7329 153.06 59.9831C152.485 58.8419 151.217 57.4049 148.47 56.9907C146.982 56.7625 145.689 56.7033 144.539 56.6441C141.606 56.5004 140.414 56.3652 140.245 54.5478C140.11 53.0685 140.879 51.6568 141.623 50.2874C142.325 48.9941 142.992 47.7684 142.756 46.6272L142.189 46.7456C142.384 47.6754 141.767 48.8081 141.116 50.0085C140.364 51.3779 139.518 52.9332 139.662 54.59C139.873 56.9738 141.716 57.0668 144.497 57.2105C145.63 57.2697 146.915 57.3288 148.369 57.5486C150.871 57.929 152.012 59.2223 152.527 60.2367C153.322 61.809 153.119 63.5841 152.57 64.6492L153.077 64.9112L153.102 64.9197Z" fill="#590068"/>
</g>
<g style="mix-blend-mode:multiply" opacity="0.2">
<path d="M139.493 66.5765C141.445 66.5765 142.688 65.672 143.398 64.9112C145.402 62.7472 145.528 59.2392 144.303 57.5401L143.838 57.8783C144.911 59.3576 144.768 62.5782 142.975 64.5139C141.868 65.7058 139.273 67.2612 134.311 64.2181L134.007 64.7084C136.255 66.0862 138.056 66.568 139.484 66.568L139.493 66.5765Z" fill="#590068"/>
</g>
<g style="mix-blend-mode:multiply" opacity="0.2">
<path d="M95.2409 22.2063C96.4413 22.2063 97.6754 21.9019 98.7067 21.2933L98.4108 20.7946C96.4666 21.9358 93.7532 21.9104 92.2232 20.727C91.1581 19.8986 90.82 18.656 91.2595 17.1175C92.4937 12.7642 92.1217 9.41674 86.2976 7.25275L86.0947 7.79374C91.53 9.80558 91.8851 12.798 90.7016 16.9569C90.2029 18.7151 90.6171 20.2113 91.8682 21.175C92.7473 21.8512 93.9645 22.1893 95.2325 22.1893L95.2409 22.2063Z" fill="#590068"/>
</g>
<g style="mix-blend-mode:multiply" opacity="0.2">
<path d="M97.574 81.8343C98.9434 82.2823 100.296 82.0203 101.293 81.1158C102.705 79.8394 103.161 77.5317 102.544 74.7844C102.003 72.3584 102.477 70.2451 103.922 68.6813C104.353 68.2164 104.869 67.8276 105.444 67.481C103.872 67.1513 102.595 66.0355 101.817 64.2604C100.693 61.7075 100.896 58.47 102.282 56.8893L102.713 57.2697C101.479 58.6729 101.319 61.6991 102.342 64.0321C102.823 65.1226 103.99 66.9653 106.365 67.0161C108.309 66.1708 110.837 65.9003 113.677 66.2891L113.601 66.8639C109.535 66.2975 106.162 67.1006 104.353 69.0702C103.043 70.4903 102.612 72.426 103.111 74.6576C103.77 77.6078 103.254 80.1183 101.682 81.5385C100.896 82.257 99.9155 82.6205 98.8758 82.6205C98.3939 82.6205 97.8952 82.5444 97.388 82.3753L97.5655 81.8259L97.574 81.8343Z" fill="#590068"/>
</g>
<g style="mix-blend-mode:multiply" opacity="0.2">
<path d="M84.514 68.3601C81.6906 70.5241 76.2553 71.3018 71.8851 68.1826C77.3035 74.1505 82.3246 71.2172 84.514 68.3601Z" fill="#590068"/>
</g>
<g style="mix-blend-mode:multiply" opacity="0.2">
<path d="M58.2418 71.1158C59.721 71.1158 61.2003 70.4649 62.3922 69.2139L61.978 68.8166C60.0592 70.8199 57.7937 70.7946 56.306 70.1014C54.4463 69.2308 53.3981 67.3288 53.6433 65.2663L53.0685 65.1986C52.798 67.5148 53.9729 69.6365 56.0609 70.6171C56.7625 70.9467 57.5063 71.1073 58.2418 71.1073V71.1158Z" fill="#590068"/>
</g>
<g style="mix-blend-mode:multiply" opacity="0.2">
<path d="M57.6416 81.6653C59.0617 81.6653 60.7946 81.3609 62.8741 80.5748L62.6712 80.0338C55.7481 82.6289 53.077 79.9155 52.1048 78.0642C50.6087 75.2325 51.3018 70.9214 53.5165 69.366L53.1868 68.8926C50.727 70.6255 49.9578 75.2155 51.5977 78.3263C52.2232 79.5013 53.8715 81.6568 57.6416 81.6568V81.6653Z" fill="#590068"/>
</g>
<g style="mix-blend-mode:multiply" opacity="0.2">
<path d="M50.4058 71.1919C51.547 66.8639 49.5858 64.7844 48.3179 63.9391C46.3483 62.6205 43.4658 62.5106 41.8935 63.7024L42.2401 64.1589C43.4573 63.2375 46.0609 63.1192 47.9967 64.4125C49.1378 65.1817 50.9045 67.0583 49.8479 71.0397L50.4058 71.1834V71.1919Z" fill="#590068"/>
</g>
<g style="mix-blend-mode:multiply" opacity="0.2">
<path d="M45.5706 39.9916L45.8834 39.5097C45.3001 39.1293 44.4802 37.3119 44.5478 35.3085C44.5901 33.88 45.0973 31.9273 47.2528 30.727L47.7008 30.4734L47.2528 30.2198C45.5875 29.2899 44.421 27.7937 43.9645 26.0017C43.5926 24.5309 43.7617 23.0262 44.421 21.9865L43.9307 21.6822C43.1869 22.8571 42.9924 24.5309 43.4066 26.1538C43.8631 27.9459 44.9789 29.4675 46.5596 30.4903C44.514 31.8343 44.0237 33.8293 43.9814 35.3085C43.9138 37.4303 44.776 39.4844 45.5875 40.0085L45.5706 39.9916Z" fill="#590068"/>
</g>
<g style="mix-blend-mode:multiply" opacity="0.2">
<path d="M37.6331 42.426C39.6365 42.426 41.4793 41.5385 42.5275 40L42.0541 39.6788C40.9298 41.3271 38.7743 42.1386 36.5596 41.7582C34.6746 41.4286 33.2713 40.3381 32.891 38.8926L32.333 39.0364C32.7726 40.6932 34.3533 41.9527 36.4582 42.3161C36.8555 42.3838 37.2443 42.4176 37.6331 42.4176V42.426Z" fill="#590068"/>
</g>
<g style="mix-blend-mode:multiply" opacity="0.2">
<path d="M35.951 53.4573L36.3737 53.0685C34.2097 50.7354 33.8631 45.9763 36.678 43.339L36.2807 42.9163C33.2376 45.7735 33.6011 50.9214 35.951 53.4573Z" fill="#590068"/>
</g>
<g style="mix-blend-mode:screen">
<path d="M100.566 38.1741C100.566 39.2223 101.412 40.0676 102.46 40.0676C103.508 40.0676 104.353 39.2223 104.353 38.1741C104.353 37.1259 103.508 36.2806 102.46 36.2806C101.412 36.2806 100.566 37.1259 100.566 38.1741Z" fill="#7A7A7A"/>
</g>
<path d="M57.7092 47.4049C51.9903 47.4049 47.3542 42.7688 47.3542 37.0499C47.3542 31.331 51.9903 26.6948 57.7092 26.6948C63.4282 26.6948 68.0643 31.331 68.0643 37.0499C68.0643 42.7688 63.4282 47.4049 57.7092 47.4049Z" fill="#F2F2F2"/>
<path d="M57.7092 26.6864C60.0254 26.6864 62.164 27.4556 63.8884 28.7489C65.6213 30.6002 66.6864 33.0769 66.6864 35.8157C66.6864 41.5385 62.0457 46.1708 56.3314 46.1708C54.0152 46.1708 51.8766 45.4015 50.1522 44.1082C48.4193 42.257 47.3542 39.7802 47.3542 37.0414C47.3542 31.3187 51.9949 26.6864 57.7092 26.6864Z" fill="white"/>
<path d="M53.4743 37.0499C53.4743 39.2646 55.2663 41.0566 57.481 41.0566C59.6957 41.0566 61.4878 39.2646 61.4878 37.0499C61.4878 34.8352 59.6957 33.0431 57.481 33.0431C55.2663 33.0431 53.4743 34.8352 53.4743 37.0499Z" fill="#590068"/>
<path d="M54.5562 37.0499C54.5562 38.6644 55.8664 39.9746 57.481 39.9746C59.0955 39.9746 60.4058 38.6644 60.4058 37.0499C60.4058 35.4353 59.0955 34.1251 57.481 34.1251C55.8664 34.1251 54.5562 35.4353 54.5562 37.0499Z" fill="#211406"/>
<path d="M55.765 37.0499C55.765 37.9966 56.5342 38.7658 57.481 38.7658C58.4277 38.7658 59.197 37.9966 59.197 37.0499C59.197 36.1031 58.4277 35.3339 57.481 35.3339C56.5342 35.3339 55.765 36.1031 55.765 37.0499Z" fill="black"/>
<g style="mix-blend-mode:screen">
<path d="M53.1615 35.4691C53.1615 36.5173 54.0068 37.3626 55.055 37.3626C56.1032 37.3626 56.9485 36.5173 56.9485 35.4691C56.9485 34.421 56.1032 33.5757 55.055 33.5757C54.0068 33.5757 53.1615 34.421 53.1615 35.4691Z" fill="#7A7A7A"/>
</g>
<path d="M94.7506 51.6061C88.2333 54.7253 72.8064 54.4886 65.4184 50.4649C67.3965 60.4311 69.2815 63.0431 73.7278 64.7253C78.1741 66.4074 87.1513 66.3229 89.7971 62.6543C93.6433 57.9713 94.7506 51.6061 94.7506 51.6061Z" fill="#590068"/>
<path d="M94.7506 51.6061C94.7506 51.6061 93.6433 57.9713 89.7971 62.6543C87.1513 66.3314 78.1741 66.4074 73.7278 64.7253C72.9755 64.4379 72.2992 64.1251 71.6737 63.7532C72.1894 61.4032 73.4151 57.743 76.2299 54.962L77.65 53.5418C84.142 54.0913 90.9637 53.415 94.7506 51.5976V51.6061Z" fill="#590068"/>
<path d="M87.033 53.4827C86.4751 55.3593 84.9197 57.3542 79.5774 57.2696C74.3026 57.1936 72.6458 55.3677 71.7075 52.6712C76.5089 53.7447 82.1894 53.9983 87.0245 53.4911L87.033 53.4827Z" fill="white"/>
<path d="M71.885 63.8715C77.1429 61.809 85.0888 63.1023 87.4556 64.4632C83.6517 66.2722 77.2612 66.0609 73.7278 64.7253C73.06 64.4717 72.4514 64.1927 71.885 63.8715Z" fill="white"/>
<g style="mix-blend-mode:screen">
<path d="M71.9442 41.3102C71.7752 42.1471 72.6036 43.0178 73.787 43.2544C74.9789 43.4996 73.2798 41.9527 73.4489 41.1158C73.6179 40.279 75.5875 40.4734 74.3956 40.2282C73.2037 39.9831 72.1048 40.4649 71.9358 41.3018L71.9442 41.3102Z" fill="#7A7A7A"/>
</g>
</svg>
