<svg width="1920" height="579" viewBox="0 0 1920 579" fill="none" xmlns="http://www.w3.org/2000/svg">
<g opacity="0.2" clip-path="url(#clip0_2004_380)">
<g style="mix-blend-mode:multiply">
<path d="M1866.5 469.017C1803.4 469.017 1737.38 442.465 1670.12 390.021C1637.19 364.345 1606.61 334.922 1577.03 306.464C1554.14 284.44 1530.46 261.674 1505.88 240.807C1437.32 182.614 1373.41 151.526 1310.49 145.765C1225.85 137.996 1146.25 176.383 1069.3 213.499C1003.48 245.247 935.416 278.075 863.017 283.38C752.499 291.51 649.525 235.528 563.365 179.724C549.375 170.659 535.182 161.239 521.458 152.123C446.553 102.373 369.097 50.9322 281.401 29.468C181.301 4.96104 52.8789 30.4907 1.10011 126.676L-2.00879 124.999C50.6329 27.2193 180.819 1.19417 282.251 26.0187C370.544 47.629 448.26 99.2473 523.419 149.163C537.136 158.272 551.316 167.693 565.287 176.738C650.953 232.225 753.241 287.858 862.763 279.841C934.49 274.582 1002.24 241.906 1067.77 210.303C1145.15 172.978 1225.15 134.401 1310.82 142.233C1374.47 148.064 1439.03 179.419 1508.16 238.101C1532.83 259.038 1556.54 281.849 1579.47 303.904C1608.98 332.298 1639.5 361.652 1672.29 387.22C1741.51 441.207 1809.36 467.474 1873.8 465.352C1941.15 463.11 2020.69 419.19 2035.42 342.195L2038.89 342.862C2023.81 421.655 1942.64 466.604 1873.91 468.884C1871.44 468.967 1868.96 469.011 1866.49 469.011L1866.5 469.017Z" fill="#F8E1D4"/>
</g>
<g style="mix-blend-mode:multiply">
<path d="M750.824 579C714.888 579 680.652 572.356 649.392 558.781C565.287 522.268 510.539 441.366 468.087 367.039C461.647 355.77 455.296 344.393 448.939 332.991C412.063 266.908 373.938 198.571 316.195 149.335C220.366 67.6195 75.5548 51.3705 -35.959 109.83L-37.5959 106.699C75.1678 47.5846 221.596 64.0115 318.492 146.641C376.717 196.29 415.001 264.907 452.028 331.269C458.386 342.665 464.73 354.036 471.158 365.292C513.331 439.111 567.647 519.441 650.807 555.548C748.496 597.955 876.062 571.79 992.023 485.546C1043.48 447.274 1089.94 401.283 1134.87 356.799C1175.58 316.5 1217.67 274.823 1263.45 238.901C1318.4 195.782 1461.73 100.848 1605.55 150.415C1655.6 167.661 1698.67 200.648 1740.31 232.549L1745.67 236.646C1790.86 271.221 1835.7 303.402 1887.28 317.256C1945.69 332.946 2004.81 319.257 2037.88 282.363L2040.51 284.726C2006.56 322.598 1946.06 336.713 1886.36 320.674C1834.16 306.648 1789.01 274.251 1743.52 239.46L1738.17 235.357C1696.74 203.627 1653.91 170.818 1604.4 153.756C1462.24 104.761 1320.13 198.927 1265.64 241.684C1220.01 277.478 1178 319.079 1137.36 359.308C1092.34 403.875 1045.79 449.961 994.129 488.379C914.13 547.874 828.553 578.994 750.837 579H750.824Z" fill="#FF8A00"/>
</g>
<g style="mix-blend-mode:multiply">
<path d="M1006.76 518.584C846.654 518.59 708.987 401.169 618.322 311.482C602.391 295.722 586.256 279.365 570.661 263.542C477.16 168.715 380.473 70.6623 255.312 26.7874C110.844 -23.8526 -56.7569 8.84871 -171.665 110.103L-174 107.448C-117.551 57.7038 -46.9671 23.4589 30.1333 8.41675C107.227 -6.63169 185.502 -1.42921 256.473 23.4461C382.402 67.5878 479.38 165.939 573.167 261.052C588.762 276.869 604.884 293.219 620.797 308.96C713.955 401.112 856.951 522.707 1022.38 514.665C1106.91 510.561 1193.2 473.68 1293.97 398.596C1321.18 378.314 1348.07 356.545 1374.07 335.487C1424.88 294.344 1477.43 251.796 1534.87 218.403C1593.54 184.304 1709.12 132.279 1824.1 167.019C1892.67 187.734 1950.19 236.5 2000.93 279.53L2097.99 361.836L2095.71 364.536L1998.65 282.23C1948.16 239.422 1890.94 190.904 1823.08 170.405C1709.37 136.059 1594.82 187.651 1536.64 221.464C1479.43 254.718 1426.99 297.177 1376.29 338.238C1350.26 359.314 1323.35 381.115 1296.07 401.436C1194.72 476.958 1107.81 514.061 1022.55 518.203C1017.27 518.457 1012 518.584 1006.76 518.584H1006.76Z" fill="#AE97A4"/>
</g>
</g>
<path d="M497.507 109.919C510.536 117.011 515.348 133.322 508.256 146.351C504.692 152.898 498.182 158.51 490.89 161.567C483.596 164.626 475.743 165.044 469.384 161.582C463.015 158.115 457.986 150.028 455.496 140.893C453.008 131.766 453.194 122.099 456.681 115.692C460.108 109.396 466.834 106.094 474.594 105.314C482.351 104.535 490.892 106.318 497.507 109.919Z" stroke="#F6E3EE" stroke-width="3"/>
<defs>
<clipPath id="clip0_2004_380">
<rect width="1920" height="579" fill="white"/>
</clipPath>
</defs>
</svg>
