<svg width="1920" height="157" viewBox="0 0 1920 157" fill="none" xmlns="http://www.w3.org/2000/svg">
<path d="M48 146.5C32 133.167 16 133.167 0 146.5V0H1920V146.5C1904 159.833 1888 159.833 1872 146.5C1856 133.167 1840 133.167 1824 146.5C1808 159.833 1792 159.833 1776 146.5C1760 133.167 1744 133.167 1728 146.5C1712 159.833 1696 159.833 1680 146.5C1664 133.167 1648 133.167 1632 146.5C1616 159.833 1600 159.833 1584 146.5C1568 133.167 1552 133.167 1536 146.5C1520 159.833 1504 159.833 1488 146.5C1472 133.167 1456 133.167 1440 146.5C1424 159.833 1408 159.833 1392 146.5C1376 133.167 1360 133.167 1344 146.5C1328 159.833 1312 159.833 1296 146.5C1280 133.167 1264 133.167 1248 146.5C1232 159.833 1216 159.833 1200 146.5C1184 133.167 1168 133.167 1152 146.5C1136 159.833 1120 159.833 1104 146.5C1088 133.167 1072 133.167 1056 146.5C1040 159.833 1024 159.833 1008 146.5C992 133.167 976 133.167 960 146.5C944 159.833 928 159.833 912 146.5C896 133.167 880 133.167 864 146.5C848 159.833 832 159.833 816 146.5C800 133.167 784 133.167 768 146.5C752 159.833 736 159.833 720 146.5C704 133.167 688 133.167 672 146.5C656 159.833 640 159.833 624 146.5C608 133.167 592 133.167 576 146.5C560 159.833 544 159.833 528 146.5C512 133.167 496 133.167 480 146.5C464 159.833 448 159.833 432 146.5C416 133.167 400 133.167 384 146.5C368 159.833 352 159.833 336 146.5C320 133.167 304 133.167 288 146.5C272 159.833 256 159.833 240 146.5C224 133.167 208 133.167 192 146.5C176 159.833 160 159.833 144 146.5C128 133.167 112 133.167 96 146.5C80 159.833 64 159.833 48 146.5Z" fill="#F8E1D4"/>
</svg>
