<svg width="149" height="138" viewBox="0 0 149 138" fill="none" xmlns="http://www.w3.org/2000/svg">
<path d="M133.008 73.3734C127.169 65.4895 116.043 63.8323 108.16 69.6719C104.188 72.6141 101.082 77.4241 99.7361 82.5233C98.3895 87.6261 98.8573 92.7848 101.672 96.5844C104.493 100.393 110.256 102.982 116.572 103.789C122.882 104.596 129.224 103.557 133.068 100.71C136.81 97.9383 138.371 93.2845 138.169 88.0877C137.967 82.8931 135.996 77.4078 133.008 73.3734Z" stroke="#F8E1D4" stroke-width="3"/>
<path d="M36.0785 102.872C51.3579 120.989 78.4309 123.289 96.5478 108.01C105.635 100.346 112.288 88.4148 114.719 76.0985C117.151 63.7787 115.322 51.3095 107.797 42.3863C100.264 33.4544 86.0031 28.2396 71.0941 27.2838C56.1922 26.3286 41.1659 29.6634 32.2012 37.2239C23.3326 44.7034 20.3531 56.3844 21.6139 68.704C22.8745 81.0214 28.3647 93.7252 36.0785 102.872Z" stroke="#F6E3EE" stroke-width="3"/>
</svg>
