<svg width="204" height="70" viewBox="0 0 204 70" fill="none" xmlns="http://www.w3.org/2000/svg">
<g clip-path="url(#clip0_11_16)">
<path d="M79.9517 17.8093V4.65204H83.3365V15.1779H88.0377V4.65204H91.4226V15.1779H92.8329V20.2528H89.6361L89.4481 17.8093H79.9517Z" fill="#590068"/>
<path d="M119.818 17.8093H109.381V4.65204H119.818V7.2835H112.766V9.82098H118.314V12.4524H112.766V15.1779H119.818V17.8093Z" fill="#590068"/>
<path d="M147.837 17.8093H144.452V12.4524H139.751V17.8093H136.366V4.65204H139.751V9.82098H144.452V4.65204H147.837V17.8093Z" fill="#590068"/>
<path d="M171.531 17.8093H168.146V7.2835H164.197V4.65204H175.48V7.2835H171.531V17.8093Z" fill="#590068"/>
<path d="M191.84 4.65204H199.738C201.055 4.65204 202.01 4.94964 202.606 5.54486C203.201 6.14007 203.499 7.09554 203.499 8.41127V10.2909C203.499 11.6066 203.201 12.5621 202.606 13.1573C202.01 13.7525 201.055 14.0501 199.738 14.0501H195.225V17.8093H191.84V4.65204ZM200.114 8.41127C200.114 7.65942 199.738 7.2835 198.986 7.2835H195.225V11.4187H198.986C199.738 11.4187 200.114 11.0427 200.114 10.2909V8.41127Z" fill="#590068"/>
<path d="M88.4295 40.1767C86.0633 40.4274 84.0888 40.5527 82.5374 40.5527C81.5031 40.5527 80.7352 40.2707 80.2495 39.6912C79.7637 39.1116 79.5129 38.2188 79.5129 36.9814V30.9666C79.5129 29.6509 79.7637 28.6954 80.2651 28.1002C80.7666 27.505 81.5815 27.2074 82.6941 27.2074H88.4295V29.8389H83.3209C82.6784 29.8389 82.365 30.2148 82.365 30.9666V36.9814C82.365 37.2633 82.4434 37.4983 82.5844 37.6706C82.7254 37.8429 82.9135 37.9212 83.1329 37.9212C83.3522 37.9212 83.603 37.9212 83.8694 37.9212C84.1358 37.9212 84.4179 37.9055 84.6999 37.8899C84.982 37.8742 85.2797 37.8585 85.5618 37.8585C85.8596 37.8585 86.2357 37.8272 86.6901 37.7802C87.1445 37.7489 87.7244 37.7019 88.4139 37.6549V40.1924L88.4295 40.1767Z" fill="#590068"/>
<path d="M97.3619 40.3647H94.4941V29.8389H91.1406V27.2074H100.7V29.8389H97.3462V40.3647H97.3619Z" fill="#590068"/>
<path d="M113.785 40.3647H110.917V32.2824L107.093 40.3647H104.069V27.2074H106.937V35.2897L110.76 27.2074H113.785V40.3647Z" fill="#590068"/>
<path d="M127.497 33.0342L125.271 37.7332H123.046L120.821 33.0342V40.3647H117.953V27.2074H120.978L124.159 34.162L127.34 27.2074H130.364V40.3647H127.497V33.0342Z" fill="#590068"/>
<path d="M137.197 40.5527C136.664 40.5527 136.115 40.4901 135.551 40.3647V37.8273H136.993C137.306 37.8273 137.51 37.6863 137.635 37.3887C137.682 37.2634 137.714 37.1224 137.714 36.9814C137.714 36.8405 137.682 36.7152 137.635 36.5898L133.248 27.1918H136.429L139.297 33.8644L141.694 27.1918H144.891L140.832 37.5297C140.456 38.5165 140.017 39.2526 139.5 39.7539C138.92 40.2864 138.168 40.537 137.228 40.537L137.197 40.5527Z" fill="#590068"/>
<path d="M149.717 39.7695C149.279 40.2864 148.746 40.5527 148.103 40.5527C147.461 40.5527 146.865 40.49 146.301 40.3647V37.8272H147.022C147.226 37.8272 147.398 37.7489 147.524 37.5766C147.649 37.42 147.727 37.2163 147.743 36.9814L148.229 27.2074H157.083V40.3647H154.215V29.8389H150.861L150.47 37.6393C150.423 38.5477 150.172 39.2526 149.733 39.7695H149.717Z" fill="#590068"/>
<path d="M170.779 40.3647H167.911V36.0416H165.764L163.774 40.3647H160.75L162.818 35.8536C162.144 35.6657 161.643 35.2897 161.345 34.7102C161.047 34.1306 160.891 33.3318 160.891 32.2824V30.9666C160.891 29.6509 161.141 28.6954 161.643 28.1002C162.144 27.505 162.959 27.2074 164.072 27.2074H170.763V40.3647H170.779ZM163.758 32.2824C163.758 33.0342 164.072 33.4101 164.714 33.4101H167.895V29.8389H164.714C164.072 29.8389 163.758 30.2148 163.758 30.9666V32.2824Z" fill="#590068"/>
<path d="M174.932 40.3647V27.2074H177.799V37.7332H181.78V27.2074H184.647V37.7332H185.838V42.8082H183.127L182.971 40.3647H174.916H174.932Z" fill="#590068"/>
<path d="M194.614 40.3647H188.879V37.7332H190.32V29.8389H188.879V27.2074H194.614V29.8389H193.172V37.7332H194.614V40.3647Z" fill="#590068"/>
<path d="M197.482 23.6362H200.193V26.2676H197.482V23.6362ZM203.546 40.3647H197.811V37.7333H199.252V29.8389H197.811V27.2074H203.546V29.8389H202.105V37.7333H203.546V40.3647ZM201.149 23.6362H203.86V26.2676H201.149V23.6362Z" fill="#590068"/>
<path d="M91.1092 55.5896L88.884 60.2887H86.6588L84.4335 55.5896V62.9201H81.5658V49.7628H84.5902L87.7714 56.7174L90.9525 49.7628H93.977V62.9201H91.1092V55.5896Z" fill="#590068"/>
<path d="M121.871 59.3488C121.871 60.6646 121.62 61.62 121.119 62.2152C120.617 62.8105 119.802 63.1081 118.69 63.1081H114.709C113.597 63.1081 112.782 62.8105 112.28 62.2152C111.779 61.62 111.528 60.6646 111.528 59.3488V53.3341C111.528 52.0183 111.779 51.0629 112.28 50.4676C112.782 49.8724 113.597 49.5748 114.709 49.5748H118.69C119.802 49.5748 120.617 49.8724 121.119 50.4676C121.62 51.0629 121.871 52.0183 121.871 53.3341V59.3488ZM119.003 53.3341C119.003 52.5822 118.69 52.2063 118.047 52.2063H115.336C114.694 52.2063 114.38 52.5822 114.38 53.3341V59.3488C114.38 60.1007 114.694 60.4766 115.336 60.4766H118.047C118.69 60.4766 119.003 60.1007 119.003 59.3488V53.3341Z" fill="#590068"/>
<path d="M138.779 60.1947C141.49 60.3826 143.402 60.4766 144.515 60.4766C144.766 60.4766 144.954 60.3983 145.095 60.226C145.236 60.0537 145.314 59.8344 145.314 59.5368V58.785C145.314 58.0331 145.001 57.6572 144.358 57.6572H140.534V55.0257H144.045C144.687 55.0257 145.001 54.6498 145.001 53.898V53.522C145.001 52.7702 144.687 52.3943 144.045 52.3943H138.936V49.7628H144.828C145.878 49.7628 146.63 50.0448 147.132 50.593C147.618 51.1569 147.868 52.0027 147.868 53.1461C147.868 53.898 147.727 54.5088 147.43 54.9787C147.132 55.4486 146.756 55.7776 146.27 55.9655C147.132 56.2475 147.712 56.921 148.025 58.0018C148.135 58.3934 148.182 58.8476 148.182 59.3489V59.5368C148.182 60.7586 147.931 61.667 147.445 62.2466C146.959 62.8261 146.192 63.1081 145.142 63.1081C143.371 63.1081 141.24 62.9828 138.764 62.7322V60.1947H138.779Z" fill="#590068"/>
<path d="M173.694 49.5748C173.96 49.5748 174.43 49.6375 175.135 49.7628V52.3003H174.493C174.336 52.3003 174.195 52.3629 174.07 52.4726C173.944 52.5979 173.85 52.7232 173.788 52.8642L172.268 56.2475L175.37 62.9201H172.346L169.87 57.5632H168.428V62.9201H165.561V49.7628H168.428V54.9317H169.87L171.468 51.3605C171.703 50.8279 171.986 50.405 172.33 50.0761C172.675 49.7471 173.129 49.5748 173.694 49.5748Z" fill="#590068"/>
<path d="M194.943 63.1081C194.41 63.1081 193.862 63.0454 193.298 62.9201V60.3826H194.739C195.053 60.3826 195.256 60.2417 195.382 59.944C195.429 59.8187 195.46 59.6778 195.46 59.5368C195.46 59.3958 195.429 59.2705 195.382 59.1452L190.994 49.7471H194.175L197.043 56.4198L199.441 49.7471H202.637L198.579 60.085C198.203 61.0718 197.764 61.808 197.247 62.3092C196.667 62.8418 195.915 63.0924 194.974 63.0924L194.943 63.1081Z" fill="#590068"/>
<g opacity="0.5">
<path d="M39.5214 69.9843C53.7151 69.9843 65.2213 68.4485 65.2213 66.554C65.2213 64.6595 53.7151 63.1237 39.5214 63.1237C25.3278 63.1237 13.8215 64.6595 13.8215 66.554C13.8215 68.4485 25.3278 69.9843 39.5214 69.9843Z" fill="url(#paint0_radial_11_16)" style="mix-blend-mode:overlay"/>
</g>
<path d="M60.2067 18.9998C58.8904 14.3164 54.3929 12.844 54.2048 12.7814L53.578 12.5934L53.3743 11.9669C53.2019 11.4656 51.6192 7.0642 47.0747 5.7798C46.4949 5.62316 45.9307 5.52918 45.3823 5.48219C44.2853 5.40387 43.3137 5.52918 42.4675 5.73281C43.4548 8.08233 43.4861 10.9801 42.4989 14.0971C41.2609 17.9346 38.4872 20.3155 36.3716 21.6312C35.2433 22.3361 34.1934 22.8216 33.4255 23.1192C33.8643 24.2314 34.7105 25.6254 36.2776 26.6122C39.6311 28.6798 43.2667 26.8941 43.4234 26.8158L44.1286 26.4712L44.7711 26.9411C49.9424 30.7787 56.007 29.9172 58.671 26.9255C59.0314 26.5339 59.3448 26.064 59.6112 25.5627L59.7523 25.2808C60.6298 23.4325 60.8022 21.083 60.2067 18.9998ZM57.7777 22.6493C57.2136 18.9058 54.3302 15.9454 50.6163 15.6478L50.0208 15.6008C49.488 12.4054 47.8739 9.5077 45.3823 7.12685C48.2186 8.3486 50.3969 11.074 51.2588 14.1597C55.2861 14.5983 58.6553 18.6708 57.7777 22.6493Z" fill="#EB4EA9"/>
<path d="M39.5371 5.70151C39.4588 5.57621 39.3961 5.48223 39.3177 5.40391C37.4999 3.03873 34.3815 2.75678 32.8927 2.63148C27.3923 2.16157 23.1456 5.59187 21.5785 7.09556L20.8263 7.81608L19.9644 7.22087C19.0242 6.57867 17.5042 5.81116 15.514 5.73284C14.8558 5.71718 14.1976 5.76417 13.5708 5.90514C11.3142 6.37504 9.27705 7.8944 7.97639 10.0873C7.33389 11.1994 6.8481 12.3585 6.56603 13.5332C6.56603 13.5332 6.55036 13.5959 6.55036 13.6116L6.47201 13.8935L6.44066 13.9248C5.82951 15.8514 5.32805 17.919 5.71981 20.1276C5.06165 19.2191 4.57586 17.6057 4.27811 16.149C2.50733 18.6552 2.20958 21.8505 3.00879 24.2157C4.37214 28.2882 9.5748 30.9353 14.5267 30.2462C14.5424 29.4003 14.6678 28.5702 14.9028 27.7557C12.5522 27.9593 10.1233 26.8472 8.9323 24.7796C10.1233 25.8604 11.659 26.4869 13.1007 26.3929C14.5111 26.3146 15.7334 25.5628 16.4699 24.5447C17.3318 23.3386 18.6951 21.8349 20.7637 20.7854C25.4805 18.3576 30.2287 20.1119 31.9525 20.9264C32.5323 20.7228 33.6919 20.2529 34.9926 19.4384C36.7477 18.3419 39.0356 16.3997 40.0229 13.2983C40.9945 10.2752 40.8221 7.58113 39.5371 5.70151ZM8.2898 16.8696C6.86377 10.8391 13.7119 5.01232 19.1339 8.81854C13.5865 7.64378 9.35541 11.638 8.2898 16.8696ZM38.5028 11.7946C38.2051 3.63394 28.7557 5.15329 24.1328 8.92819C26.0133 6.03045 29.5079 4.00986 33.0495 4.32313C36.9985 4.38578 39.8819 8.05103 38.5028 11.7946Z" fill="#FDC52C"/>
<path d="M41.684 38.8454C42.828 40.3178 44.348 41.4299 45.8681 42.4323C45.8837 42.448 45.8994 42.4793 45.9308 42.4793C46.5889 43.1529 47.3254 43.6854 48.1403 44.0457C48.3127 44.2023 48.4851 44.3433 48.6731 44.4686C48.6731 44.4842 48.6731 44.4999 48.7045 44.4999C50.0678 45.5337 51.6976 46.3639 53.578 46.7085L53.1079 47.3663C52.4498 48.1495 51.6505 48.776 50.726 49.2303C48.062 50.5303 44.8808 50.1857 42.4205 48.3531L40.8848 47.2097L39.2551 53.3341C37.5626 50.7026 35.8702 48.0712 34.1934 45.4397C33.8957 45.0011 33.6136 44.5469 33.3315 44.1083C37.3746 43.1372 40.1796 40.584 41.684 38.8454Z" fill="#00B1FF"/>
<path d="M61.8522 29.6353C61.6014 29.0714 61.3037 28.5701 61.0216 28.1316C60.8806 28.3039 60.7552 28.4762 60.6142 28.6485C58.5457 30.951 55.5212 32.1258 52.2931 32.1258C49.4723 32.1258 46.4792 31.2329 43.8466 29.4473C42.2638 30.0582 38.5342 31.0293 34.93 28.8051C32.5324 27.3327 31.3884 25.1712 30.8556 23.6205L30.7772 23.4012C30.7772 23.4012 30.7459 23.2759 30.7302 23.2132C29.3355 22.5867 25.5432 21.2396 21.939 23.0879C19.7608 24.2 18.5385 26.017 18.1153 26.7375L17.9743 26.9881C17.4102 28.0219 17.1124 29.1967 17.1124 30.3871C17.1124 30.6534 17.1281 30.9353 17.1438 31.2016C17.2378 32.2981 17.5825 33.3945 18.1153 34.3656C19.0713 36.1199 20.3249 37.608 21.845 38.7984C22.8322 39.5816 25.8253 41.9937 30.1661 41.9154H30.2601C30.3855 41.9154 30.4952 41.9154 30.6049 41.8998C30.8086 41.8841 30.934 41.8841 31.075 41.8684C36.6381 41.3672 39.9916 36.9188 40.6184 36.026L42.1385 33.7548C42.1385 33.7548 42.1385 33.7861 42.1541 33.8331C42.2168 34.0994 42.2482 34.397 42.3109 34.6476C42.3265 34.6946 42.3265 34.7259 42.3422 34.7572C42.687 36.0729 43.5645 38.6887 45.7897 42.26C45.8368 42.3227 45.8838 42.401 45.9308 42.4793C46.5889 43.1528 47.3255 43.6854 48.1403 44.0457C50.2716 44.7505 52.7945 44.5312 54.5496 44.2179C54.5653 44.2179 54.5967 44.2023 54.6123 44.2023C54.8944 44.171 55.1451 44.1083 55.3802 44.0613C59.5956 43.1372 62.7924 38.5948 62.8081 33.9427C62.8238 32.4704 62.4947 31.0293 61.8522 29.6353ZM20.1369 29.228C20.4346 24.9989 26.3424 22.853 29.3355 25.7037C25.4962 25.3435 22.7069 26.3459 20.1369 29.228Z" fill="#AA3EFF"/>
<path d="M54.5496 44.218C51.9952 44.9385 49.8797 44.8445 48.1403 44.0457C50.2715 44.7505 52.7944 44.5312 54.5496 44.218Z" fill="#590068"/>
<path d="M45.7897 42.26C45.7897 42.26 45.8837 42.401 45.9307 42.4793C45.8994 42.4793 45.8837 42.448 45.8681 42.4323C44.1913 40.725 43.0473 38.0935 42.3422 34.7572C42.6869 36.0729 43.5645 38.6887 45.7897 42.26Z" fill="#590068"/>
<path d="M64.2025 28.5546C63.654 27.3485 62.9802 26.3461 62.416 25.6099C63.2779 23.3387 63.3876 20.7229 62.6981 18.2951C61.3191 13.3611 57.182 11.2152 55.5993 10.5573C54.9255 8.91265 52.7316 4.68352 47.764 3.28947C47.0274 3.08585 46.2909 2.96054 45.5701 2.91355C43.7836 2.75691 42.2166 3.07018 41.0256 3.44611C38.5026 0.548366 34.7573 0.20377 33.0806 0.047135C27.3138 -0.438432 22.7693 2.63161 20.544 4.54255C19.3374 3.86902 17.6606 3.22682 15.6078 3.1485C14.7302 3.11717 13.8683 3.19549 13.0378 3.36779C10.076 3.97866 7.42768 5.95226 5.75092 8.77168C5.04574 9.96211 4.51294 11.1995 4.16818 12.4839C0.14082 15.7889 -0.721067 21.2398 0.548257 25.046C2.31904 30.2933 8.63432 33.6453 14.7929 32.8308C15.0123 33.8019 15.3727 34.7417 15.8428 35.6189C16.9711 37.6708 18.4442 39.4251 20.2306 40.8348C23.3177 43.2626 26.6242 44.5 30.0404 44.5H30.4949L30.824 45.0013H30.8397C31.2314 45.6121 31.6232 46.223 32.0149 46.8339C34.2245 50.2955 36.4341 53.7415 38.6593 57.2031L40.2421 59.6623L42.4516 51.4076C45.3977 52.927 48.8766 53.021 51.854 51.5486C53.1077 50.9377 54.2046 50.0919 55.0978 49.0268C55.756 48.2593 56.2731 47.3508 56.7276 46.364C61.6795 44.8133 65.3621 39.5974 65.3935 33.9429C65.3935 32.0946 65.0017 30.2776 64.2025 28.5546ZM42.4673 5.73297C43.3135 5.52935 44.2851 5.40404 45.382 5.48236C45.9305 5.52935 46.4946 5.62333 47.0745 5.77996C51.619 7.06437 53.2017 11.4658 53.3741 11.967L53.5778 12.5936L54.2046 12.7815C54.3927 12.8442 58.8901 14.3165 60.2065 18.9999C60.802 21.0832 60.6296 23.4327 59.752 25.281L59.611 25.5629C59.3446 26.0641 59.0312 26.534 58.6707 26.9256C56.0067 29.9174 49.9422 30.7788 44.7709 26.9413L44.1284 26.4714L43.4232 26.816C43.2665 26.8943 39.6309 28.6799 36.2774 26.6124C34.7103 25.6256 33.8641 24.2315 33.4253 23.1194C34.1932 22.8218 35.2431 22.3362 36.3714 21.6314C38.4869 20.3157 41.2606 17.9348 42.4986 14.0973C43.4859 10.9802 43.4545 8.08249 42.4673 5.73297ZM13.1005 26.3931C11.6588 26.4871 10.123 25.8605 8.93206 24.7797C10.123 26.8473 12.552 27.9594 14.9026 27.7558C14.6675 28.5703 14.5422 29.4005 14.5265 30.2463C9.57456 30.9355 4.3719 28.2884 3.00855 24.2159C2.20935 21.8507 2.50709 18.6553 4.27788 16.1492C4.57562 17.6059 5.06141 19.2192 5.71958 20.1277C5.32781 17.9191 5.82927 15.8516 6.44043 13.925L6.47177 13.8936L6.55012 13.6117C6.55012 13.6117 6.56579 13.5647 6.56579 13.549C6.84786 12.3586 7.33365 11.1995 7.97615 10.0874C9.27682 7.89453 11.314 6.37517 13.5706 5.90527C14.1974 5.7643 14.8556 5.71731 15.5137 5.73297C17.5039 5.81129 19.024 6.5788 19.9642 7.221L20.8261 7.81621L21.5783 7.09569C23.1454 5.592 27.3921 2.1617 32.8925 2.63161C34.3812 2.75691 37.4997 3.03886 39.3175 5.40404C39.3958 5.48236 39.4585 5.57634 39.5369 5.70164C40.8219 7.58126 40.9942 10.2754 40.0227 13.2984C39.0354 16.3998 36.7475 18.3421 34.9924 19.4385C33.6917 20.253 32.5321 20.7229 31.9523 20.9265C30.2285 20.112 25.4803 18.3577 20.7634 20.7856C18.6949 21.835 17.3315 23.3387 16.4697 24.5448C15.7331 25.5629 14.5108 26.3148 13.1005 26.3931ZM55.3799 44.0615C55.1449 44.1085 54.8941 44.1711 54.612 44.2024C54.5964 44.2024 54.565 44.2181 54.5494 44.2181C51.995 44.9386 49.8795 44.8446 48.1401 44.0458C48.3124 44.2024 48.4848 44.3434 48.6729 44.4687C48.6885 44.4844 48.6885 44.5 48.7042 44.5C50.0676 45.5338 51.6973 46.364 53.5778 46.7086C53.4211 46.9279 53.1077 47.3665 53.1077 47.3665C52.4495 48.1496 51.6503 48.7762 50.7257 49.2304C48.0617 50.5305 44.8806 50.1859 42.4203 48.3533L40.8845 47.2098L39.2548 53.3342C37.5624 50.7028 35.8699 48.0713 34.1932 45.4398C33.8954 45.0013 33.6134 44.547 33.3313 44.1085C37.3743 43.1373 40.1794 40.5842 41.6838 38.8455C42.8277 40.3179 44.3478 41.43 45.8678 42.4325C44.1911 40.7251 43.0471 38.0937 42.3419 34.7574C42.3262 34.726 42.3262 34.6947 42.3106 34.6477C42.2166 34.2405 42.1695 33.9585 42.1539 33.8332C42.1382 33.7862 42.1382 33.7549 42.1382 33.7549L40.6181 36.0261C39.9913 36.9189 36.6378 41.3673 31.0747 41.8686C30.9337 41.8686 30.8083 41.8686 30.6046 41.8999C30.4949 41.9156 30.3852 41.9156 30.2598 41.9156H30.1658C25.825 41.9939 22.8319 39.5817 21.8447 38.7985C20.3246 37.6081 19.071 36.1201 18.1151 34.3658C17.5823 33.3946 17.2375 32.2982 17.1435 31.2018C17.1278 30.9355 17.1122 30.6535 17.1122 30.3873C17.1122 29.1968 17.4099 28.0221 17.974 26.9883L18.1151 26.7377C18.5382 26.0172 19.7605 24.2002 21.9387 23.0881C25.543 21.2398 29.3353 22.5869 30.73 23.2134C30.7456 23.276 30.7613 23.3387 30.777 23.4014L30.8553 23.6206C31.3881 25.1713 32.5321 27.3329 34.9297 28.8053C38.5339 31.0295 42.2636 30.0583 43.8463 29.4475C46.479 31.2331 49.4721 32.1259 52.2928 32.1259C55.5209 32.1259 58.5454 30.9511 60.6139 28.6486C60.7549 28.4763 60.8803 28.304 61.0213 28.1317C61.3034 28.5703 61.6012 29.0715 61.8519 29.6354C62.4944 31.0295 62.8235 32.4705 62.8078 33.9429C62.7921 38.5949 59.5953 43.1373 55.3799 44.0615Z" fill="#590068"/>
</g>
<defs>
<radialGradient id="paint0_radial_11_16" cx="0" cy="0" r="1" gradientUnits="userSpaceOnUse" gradientTransform="translate(39.3821 66.6176) scale(18.2736 3.67465)">
<stop stop-color="#722F92"/>
<stop offset="1" stop-color="#722F92" stop-opacity="0"/>
</radialGradient>
<clipPath id="clip0_11_16">
<rect width="203.86" height="70" fill="white"/>
</clipPath>
</defs>
</svg>
